<svg xmlns="http://www.w3.org/2000/svg" width="224" height="70" fill="none" viewBox="0 0 224 70"><g filter="url(#filter0_d_197:253)"><path fill="#4F4188" d="M203.807 3.18224H203.251V0.35703H201.988V0.0155241H205.048V0.35703H203.786V3.18224H203.807ZM209.907 3.18224H209.372V0.403602L207.959 3.18224H207.596L206.161 0.403602V3.18224H205.691V0H206.504L207.81 2.54579L209.094 0H209.886V3.18224H209.907Z"/><path fill="#4F4188" d="M106.634 38.1869C110.05 38.1869 114.116 37.9214 116.254 37.3075C117.16 37.042 117.369 36.8429 117.648 36.1958C118.182 34.9016 118.833 31.5831 118.833 31.1185C118.833 30.8199 118.717 30.5378 118.345 30.5378C117.927 30.5378 117.81 30.6871 117.648 31.301C117.439 31.9813 116.742 33.093 115.835 33.8231C113.698 35.5819 110.816 35.9635 106.053 35.9635C98.8963 35.9635 89.2068 31.4504 89.2068 22.3744C89.2068 18.6743 90.2292 15.0405 94.1329 12.4853C96.4797 10.9588 99.5236 10.1126 104.194 10.1126C109.12 10.1126 113.279 11.1413 115.045 12.4853C116.393 13.4809 117.067 14.8082 117.137 16.0029C117.137 16.5338 117.253 16.8491 117.671 16.8491C118.159 16.8491 118.252 16.5504 118.322 15.9697C118.438 15.2065 118.368 13.0992 118.484 11.8382C118.6 10.4942 118.763 10.0462 118.763 9.73098C118.763 9.49869 118.554 9.31617 117.95 9.26639C116.347 9.15025 114.627 8.80181 112.606 8.61929C110.143 8.387 108.167 8.23767 104.845 8.23767C96.8747 8.23767 91.786 9.76416 87.9521 12.2862C82.8169 15.6545 81.7015 20.151 81.7015 22.756C81.7015 26.4561 83.0957 30.7369 88.3238 34.0222C93.1569 37.042 99.2913 38.1869 106.634 38.1869ZM53.6788 26.5722C53.6788 30.0898 53.6788 33.1096 53.4 34.7025C53.1908 35.8142 52.912 36.6438 51.8431 36.8097C51.3552 36.8927 50.7278 36.959 49.9146 36.959C49.2639 36.959 49.0548 37.0752 49.0548 37.2577C49.0548 37.5232 49.4266 37.6393 50.1237 37.6393C51.1925 37.6393 52.5867 37.5564 53.8182 37.5564C55.0962 37.5232 56.2812 37.5232 56.8621 37.5232C58.4654 37.5232 60.1152 37.5564 62.4156 37.6393C64.7159 37.6725 67.6669 37.7555 71.6635 37.7555C73.6851 37.7555 74.173 37.7555 74.5448 36.7599C74.8237 35.9967 75.2419 33.3917 75.2419 32.5289C75.2419 32.1473 75.2419 31.8486 74.8237 31.8486C74.4519 31.8486 74.3357 31.9979 74.2428 32.4293C73.871 33.989 73.2204 34.802 71.8262 35.25C70.432 35.7146 68.1781 35.7146 66.8072 35.7146C61.3467 35.7146 60.487 35.1339 60.394 32.5123C60.3476 31.4006 60.394 27.8996 60.394 26.5888V23.569C60.394 23.3367 60.4405 23.1874 60.7193 23.1874C61.9973 23.1874 67.2952 23.2206 68.3176 23.3035C70.2926 23.4529 71.0362 24.0336 71.315 24.7968C71.4777 25.2946 71.4777 25.7924 71.5241 26.174C71.5241 26.3731 71.6403 26.5224 72.0121 26.5224C72.5 26.5224 72.5001 26.1076 72.5001 25.7924C72.5001 25.5269 72.6627 24.0004 72.7092 23.2372C72.9183 21.2959 73.1274 20.6819 73.1274 20.4496C73.1274 20.2173 72.9648 20.151 72.7556 20.151C72.5 20.151 72.2677 20.3501 71.8959 20.6488C71.408 21.0304 70.6179 21.1465 69.3399 21.2295C68.1084 21.3124 61.9509 21.3124 60.789 21.3124C60.4637 21.3124 60.4173 21.1631 60.4173 20.8976V11.1911C60.4173 10.9256 60.5334 10.8095 60.789 10.8095C61.8579 10.8095 67.481 10.8924 68.3873 10.9588C71.0594 11.1911 71.5938 11.6391 71.9656 12.336C72.2444 12.8006 72.2909 13.4477 72.2909 13.7131C72.2909 14.0616 72.4071 14.2441 72.7789 14.2441C73.1507 14.2441 73.2668 14.0118 73.3133 13.8293C73.4295 13.3647 73.5224 11.6889 73.5921 11.3073C73.7548 9.54847 74.0104 9.10047 74.0104 8.8184C74.0104 8.61929 73.9639 8.46996 73.6851 8.46996C73.4063 8.46996 73.1042 8.58611 72.8254 8.61929C72.4071 8.70225 71.5474 8.76862 70.525 8.85158C69.5026 8.88477 58.8605 8.88477 57.1642 8.88477C56.4207 8.88477 55.1891 8.85159 53.795 8.80181C52.4473 8.80181 50.9137 8.76862 49.4731 8.76862C48.6598 8.76862 48.288 8.85158 48.288 9.11706C48.288 9.38254 48.6133 9.4655 49.1942 9.4655C49.9378 9.4655 50.844 9.49868 51.2855 9.58165C53.0514 9.84712 53.4697 10.461 53.5859 11.7552C53.702 12.9831 53.702 14.045 53.702 19.8523V26.5722H53.6788ZM19.452 25.7758C19.2429 25.7758 19.1732 25.6596 19.2429 25.5103L24.1689 16.119C24.2154 15.9697 24.3316 15.7706 24.4942 15.7706C24.6569 15.7706 24.7034 15.9697 24.7498 16.119L29.5597 25.5601C29.6062 25.6762 29.5597 25.7924 29.2809 25.7924H19.452V25.7758ZM30.3033 27.6839C30.5589 27.6839 30.7215 27.7669 30.8377 27.9494L35.1131 36.0465C35.392 36.511 34.997 36.8429 34.6252 36.9259C34.0908 36.959 33.8816 37.042 33.8816 37.2743C33.8816 37.5398 34.5322 37.5398 35.4849 37.573C39.7604 37.6559 43.664 37.6559 45.5926 37.6559C47.5677 37.6559 48.0557 37.573 48.0557 37.2743C48.0557 37.0088 47.7768 36.9756 47.3586 36.9756C46.708 36.9756 45.9179 36.9424 45.1047 36.8263C43.9893 36.594 42.4325 36.063 40.3877 32.645C36.972 26.8543 28.3979 11.2741 27.1199 9.18343C26.5855 8.30404 26.2602 7.9556 25.7722 7.9556C25.2378 7.9556 24.9125 8.37041 24.2851 9.4821L10.8547 33.4581C9.78579 35.3662 8.7634 36.6604 6.30038 36.8927C5.88213 36.9259 5.11533 36.9756 4.65061 36.9756C4.23236 36.9756 4 37.0586 4 37.2743C4 37.573 4.32531 37.6559 5.02239 37.6559C7.81072 37.6559 10.7385 37.5398 11.3426 37.5398C12.9924 37.5398 15.2927 37.6559 17.0122 37.6559C17.5931 37.6559 17.9184 37.573 17.9184 37.2743C17.9184 37.042 17.7558 36.9756 17.1052 36.9756H16.2919C14.6421 36.9756 14.1542 36.4779 14.1542 35.7976C14.1542 35.333 14.433 34.4204 14.9674 33.4746L17.8487 28.0158C17.9649 27.7835 18.0578 27.7171 18.3367 27.7171H30.3033V27.6839Z"/><path fill="#4F4188" d="M187.035 10.5444C187.035 10.2316 187.148 10.0579 187.509 9.98839C188.027 9.86677 188.951 9.83202 190.257 9.83202C193.322 9.83202 198.189 11.4652 198.189 17.1466C198.189 20.4303 196.679 22.272 195.124 23.1407C194.2 23.662 193.525 23.8183 191.452 23.8183C190.145 23.8183 188.59 23.6967 187.509 23.4187C187.148 23.2971 187.035 23.1407 187.035 22.7064V10.5444V10.5444ZM180.907 26.5808C180.907 30.2642 180.907 33.4263 180.636 35.0943C180.434 36.2583 180.163 37.127 179.127 37.3008C178.654 37.3877 178.045 37.4572 177.257 37.4572C176.626 37.4572 176.423 37.5788 176.423 37.7699C176.423 38.0479 176.784 38.1695 177.459 38.1695C179.532 38.1695 182.799 38.0479 183.791 38.0479C184.579 38.0479 188.41 38.1695 191.407 38.1695C192.083 38.1695 192.443 38.0479 192.443 37.7699C192.443 37.5788 192.24 37.4572 191.812 37.4572C191.181 37.4572 190.055 37.3703 189.266 37.3008C187.711 37.1444 187.396 36.2583 187.238 35.0943C186.968 33.4089 186.968 30.2642 186.968 26.5287V25.9727C186.968 25.7295 187.126 25.66 187.373 25.66L191.88 25.7469C192.24 25.7469 192.556 25.7816 192.804 26.0249C193.479 26.633 195.868 29.3434 197.941 31.5499C200.847 34.6252 202.808 36.5016 205.038 37.4224C206.39 37.9784 207.674 38.1869 210.581 38.1869H215.515C216.146 38.1869 216.507 38.1 216.507 37.7873C216.507 37.5962 216.304 37.4745 215.876 37.4745C215.47 37.4745 214.997 37.4398 214.434 37.3529C213.645 37.2313 211.527 36.9533 208.621 34.6251C205.556 32.1406 201.974 28.5789 197.377 24.1137C202.605 20.8299 204.227 18.1196 204.227 15.1486C204.227 12.4729 202.154 10.4227 200.69 9.67565C197.896 8.19884 194.403 7.9556 191.159 7.9556C189.559 7.9556 185.616 8.07721 183.836 8.07721C182.754 8.07721 179.487 7.9556 176.738 7.9556C175.95 7.9556 175.589 8.04247 175.589 8.32046C175.589 8.59845 175.905 8.68531 176.468 8.68531C177.189 8.68531 178.068 8.72007 178.496 8.80694C180.208 9.08493 180.614 9.72778 180.727 11.083C180.839 12.3687 180.839 13.4806 180.839 19.5616V26.5808H180.907Z"/><path fill="#4F4188" d="M204.603 49.1971L205.737 49.1298C205.784 49.4667 205.923 49.7362 206.108 49.9552C206.316 50.1742 206.617 50.3427 207.034 50.4774C207.451 50.6122 207.914 50.6796 208.447 50.6796C208.91 50.6796 209.327 50.629 209.674 50.528C210.022 50.4269 210.3 50.2921 210.462 50.1068C210.647 49.9384 210.717 49.7362 210.717 49.5341C210.717 49.3319 210.624 49.1466 210.462 48.9781C210.3 48.8265 210.022 48.6918 209.628 48.5907C209.373 48.5233 208.841 48.4054 207.984 48.2706C207.127 48.119 206.548 47.9842 206.201 47.8495C205.761 47.681 205.436 47.4789 205.228 47.2262C205.019 46.9735 204.904 46.7039 204.904 46.3839C204.904 46.047 205.043 45.7269 205.297 45.4405C205.552 45.1373 205.946 44.9183 206.455 44.7667C206.965 44.615 207.521 44.5308 208.146 44.5308C208.817 44.5308 209.443 44.615 209.952 44.7667C210.485 44.9183 210.879 45.1541 211.157 45.4742C211.434 45.7774 211.597 46.1312 211.62 46.5355L210.485 46.6029C210.415 46.1817 210.207 45.8616 209.836 45.6427C209.466 45.4237 208.933 45.3226 208.239 45.3226C207.497 45.3226 206.965 45.4237 206.617 45.6258C206.27 45.828 206.108 46.0638 206.108 46.3333C206.108 46.5692 206.224 46.7713 206.455 46.9229C206.687 47.0746 207.312 47.243 208.285 47.3946C209.281 47.5631 209.952 47.6979 210.323 47.8158C210.855 48.0011 211.249 48.2201 211.504 48.5065C211.759 48.776 211.898 49.0961 211.898 49.4498C211.898 49.8036 211.759 50.1405 211.481 50.4606C211.203 50.7807 210.809 51.0165 210.276 51.2018C209.744 51.3703 209.165 51.4713 208.493 51.4713C207.66 51.4713 206.965 51.3871 206.409 51.2018C205.853 51.0333 205.413 50.7638 205.089 50.41C204.788 50.0563 204.626 49.652 204.603 49.1971ZM190.707 44.6487H191.935V48.5233C191.935 49.1971 191.819 49.7362 191.61 50.1237C191.402 50.5111 191.031 50.848 190.476 51.0839C189.92 51.3366 189.202 51.4545 188.322 51.4545C187.465 51.4545 186.747 51.3534 186.214 51.1344C185.659 50.9154 185.265 50.6122 185.033 50.1911C184.802 49.7867 184.686 49.214 184.686 48.5065V44.6319H185.913V48.5065C185.913 49.0961 185.983 49.5172 186.145 49.7868C186.284 50.0563 186.539 50.2753 186.909 50.4269C187.28 50.5785 187.72 50.6459 188.229 50.6459C189.132 50.6459 189.758 50.4943 190.151 50.2079C190.522 49.9047 190.73 49.3488 190.73 48.5065V44.6487H190.707ZM166.39 51.3534V44.6487H167.618V50.5785H172.157V51.3703H166.39V51.3534ZM148.048 47.8326H150.434C151.221 47.8326 151.777 47.7316 152.124 47.5126C152.449 47.2936 152.611 47.0072 152.611 46.6029C152.611 46.3165 152.518 46.0806 152.31 45.8785C152.124 45.6763 151.847 45.5416 151.545 45.4742C151.337 45.4405 150.966 45.4068 150.411 45.4068H148.048V47.8326ZM146.821 51.3534V44.6487H150.295C150.897 44.6487 151.383 44.6656 151.708 44.7161C152.171 44.7667 152.541 44.8677 152.842 45.0362C153.143 45.1878 153.398 45.4068 153.583 45.6763C153.769 45.9459 153.861 46.2491 153.861 46.586C153.861 47.1588 153.607 47.6305 153.12 48.0348C152.611 48.4222 151.708 48.6244 150.411 48.6244H148.048V51.3534H146.821Z"/><path fill="#4F4188" d="M121.393 51.3534V44.6487H122.62V50.5785H127.159V51.3703H121.393V51.3534ZM103.468 48.6075H106.617L105.645 46.7545C105.343 46.1817 105.135 45.7269 104.973 45.3563C104.857 45.7943 104.672 46.2154 104.463 46.6534L103.468 48.6075ZM100.804 51.3534L104.348 44.6487H105.691L109.443 51.3534H108.053L106.988 49.3151H103.097L102.101 51.3534H100.804ZM86.2142 51.3534V45.4237H83.1803V44.6319H90.4754V45.4237H87.4416V51.3534H86.2142ZM69.4471 51.3534V44.6487H70.6745V51.3534H69.4471ZM50.8273 47.8326H53.2127C54.0001 47.8326 54.5559 47.7316 54.9033 47.5126C55.2275 47.2936 55.3896 47.0072 55.3896 46.6029C55.3896 46.3165 55.297 46.0807 55.0885 45.8785C54.9033 45.6763 54.6254 45.5416 54.3243 45.4742C54.1159 45.4405 53.7453 45.4068 53.1895 45.4068H50.8273V47.8326V47.8326ZM49.623 51.3534V44.6487H53.0969C53.699 44.6487 54.1853 44.6656 54.5096 44.7161C54.9727 44.7667 55.3433 44.8677 55.6444 45.0362C55.9454 45.1878 56.2002 45.4068 56.3854 45.6763C56.5707 45.9459 56.6633 46.2491 56.6633 46.586C56.6633 47.1588 56.4086 47.6305 55.9223 48.0348C55.4128 48.4222 54.5096 48.6244 53.2127 48.6244H50.8505V51.3534H49.623ZM31.6285 48.6075H34.7781L33.8055 46.7545C33.5044 46.1817 33.296 45.7269 33.1339 45.3563C33.0181 45.7943 32.8328 46.2154 32.6244 46.6534L31.6285 48.6075ZM28.9653 51.3534L32.5086 44.6487H33.8518L37.6035 51.3534H36.214L35.1487 49.3151H31.258L30.2622 51.3534H28.9653ZM16.2047 48.995L17.4321 49.214C17.1773 49.9384 16.7142 50.4943 16.0426 50.8817C15.371 51.2692 14.5604 51.4545 13.6109 51.4545C12.615 51.4545 11.8045 51.3029 11.1792 51.0165C10.5539 50.7301 10.0907 50.2921 9.76649 49.7362C9.44227 49.1803 9.28015 48.5739 9.28015 47.9337C9.28015 47.243 9.46542 46.6197 9.83597 46.1143C10.2065 45.5921 10.716 45.2047 11.4108 44.9351C12.0824 44.6656 12.8235 44.5308 13.634 44.5308C14.5604 44.5308 15.3246 44.6993 15.9499 45.0362C16.5752 45.3731 17.0152 45.8617 17.27 46.4681L16.0657 46.6703C15.8573 46.1817 15.5331 45.828 15.1394 45.609C14.7225 45.39 14.213 45.272 13.6109 45.272C12.8929 45.272 12.314 45.39 11.8276 45.6427C11.3645 45.8953 11.0171 46.2154 10.8318 46.6366C10.6465 47.0577 10.5307 47.4789 10.5307 47.9169C10.5307 48.4896 10.6465 48.9782 10.8781 49.4161C11.1097 49.8373 11.4571 50.1574 11.9434 50.3764C12.4298 50.5954 12.9393 50.6964 13.4951 50.6964C14.1667 50.6964 14.7457 50.5448 15.232 50.2753C15.7183 49.9889 16.0426 49.5678 16.2047 48.995Z"/><path fill="#4F4188" fill-rule="evenodd" d="M130.68 31.2901C130.657 32.3514 128.48 32.3514 128.457 31.2901C128.48 30.2457 130.657 30.2457 130.68 31.2901Z" clip-rule="evenodd"/><path fill="#4F4188" fill-rule="evenodd" d="M131.444 35.8216C131.421 36.8829 129.244 36.8829 129.221 35.8216C129.267 34.7602 131.421 34.7602 131.444 35.8216Z" clip-rule="evenodd"/><path fill="#4F4188" fill-rule="evenodd" d="M129.707 34.0529C129.684 35.1141 127.507 35.1141 127.484 34.0529C127.507 32.9916 129.684 32.9916 129.707 34.0529Z" clip-rule="evenodd"/><path fill="#4F4188" fill-rule="evenodd" d="M128.202 32.1494C128.179 33.2107 126.002 33.2107 125.979 32.1494C126.002 31.0881 128.179 31.0881 128.202 32.1494Z" clip-rule="evenodd"/><path fill="#4F4188" fill-rule="evenodd" d="M127.02 30.195C126.997 31.2563 124.82 31.2563 124.797 30.195C124.82 29.1506 126.997 29.1506 127.02 30.195Z" clip-rule="evenodd"/><path fill="#4F4188" fill-rule="evenodd" d="M126.164 28.1568C126.141 29.2181 123.964 29.2181 123.941 28.1568C123.964 27.0955 126.141 27.0955 126.164 28.1568Z" clip-rule="evenodd"/><path fill="#4F4188" fill-rule="evenodd" d="M125.631 25.933C125.608 26.9943 123.431 26.9943 123.408 25.933C123.454 24.8717 125.608 24.8717 125.631 25.933Z" clip-rule="evenodd"/><path fill="#4F4188" fill-rule="evenodd" d="M125.446 23.8442C125.423 24.9054 123.246 24.9054 123.222 23.8442C123.246 22.7997 125.423 22.7997 125.446 23.8442Z" clip-rule="evenodd"/><path fill="#4F4188" fill-rule="evenodd" d="M125.446 21.6542C125.423 22.7155 123.246 22.7155 123.222 21.6542C123.246 20.5929 125.423 20.5929 125.446 21.6542Z" clip-rule="evenodd"/><path fill="#4F4188" fill-rule="evenodd" d="M125.747 19.498C125.724 20.5593 123.547 20.5593 123.523 19.498C123.57 18.4367 125.724 18.4367 125.747 19.498Z" clip-rule="evenodd"/><path fill="#4F4188" fill-rule="evenodd" d="M126.534 17.3585C126.511 18.4198 124.334 18.4198 124.311 17.3585C124.334 16.2972 126.511 16.2972 126.534 17.3585Z" clip-rule="evenodd"/><path fill="#4F4188" fill-rule="evenodd" d="M127.646 15.3201C127.623 16.3814 125.446 16.3814 125.422 15.3201C125.446 14.2588 127.623 14.2588 127.646 15.3201Z" clip-rule="evenodd"/><path fill="#4F4188" fill-rule="evenodd" d="M128.896 13.5007C128.642 14.5452 126.511 14.3093 126.696 13.248C126.951 12.2036 129.082 12.4394 128.896 13.5007Z" clip-rule="evenodd"/><path fill="#4F4188" fill-rule="evenodd" d="M129.591 29.5212C129.568 30.5825 127.391 30.5825 127.368 29.5212C127.391 28.46 129.568 28.46 129.591 29.5212Z" clip-rule="evenodd"/><path fill="#4F4188" fill-rule="evenodd" d="M128.827 27.6177C128.804 28.679 126.627 28.679 126.604 27.6177C126.65 26.5564 128.804 26.5564 128.827 27.6177Z" clip-rule="evenodd"/><path fill="#4F4188" fill-rule="evenodd" d="M131.375 27.2133C131.352 28.2746 129.175 28.2746 129.151 27.2133C129.175 26.152 131.352 26.152 131.375 27.2133Z" clip-rule="evenodd"/><path fill="#4F4188" fill-rule="evenodd" d="M130.934 25.4782C130.911 26.5394 128.734 26.5394 128.711 25.4782C128.734 24.4169 130.911 24.4169 130.934 25.4782Z" clip-rule="evenodd"/><path fill="#4F4188" fill-rule="evenodd" d="M130.726 23.7601C130.703 24.8214 128.526 24.8214 128.503 23.7601C128.526 22.6988 130.703 22.6988 130.726 23.7601Z" clip-rule="evenodd"/><path fill="#4F4188" fill-rule="evenodd" d="M132.972 23.7094C132.972 24.6359 131.027 24.6359 131.027 23.7094C131.027 22.7829 132.972 22.7829 132.972 23.7094Z" clip-rule="evenodd"/><path fill="#4F4188" fill-rule="evenodd" d="M132.995 22.1428C132.995 23.0693 131.05 23.0693 131.05 22.1428C131.05 21.2162 132.995 21.2162 132.995 22.1428Z" clip-rule="evenodd"/><path fill="#4F4188" fill-rule="evenodd" d="M133.273 20.5761C133.273 21.5027 131.328 21.5027 131.328 20.5761C131.328 19.6496 133.273 19.6496 133.273 20.5761Z" clip-rule="evenodd"/><path fill="#4F4188" fill-rule="evenodd" d="M133.713 19.0936C133.713 20.0201 131.768 20.0201 131.768 19.0936C131.768 18.1671 133.713 18.1671 133.713 19.0936Z" clip-rule="evenodd"/><path fill="#4F4188" fill-rule="evenodd" d="M134.547 17.5776C134.547 18.5041 132.602 18.5041 132.602 17.5776C132.602 16.651 134.547 16.651 134.547 17.5776Z" clip-rule="evenodd"/><path fill="#4F4188" fill-rule="evenodd" d="M135.566 16.2804C135.566 17.2069 133.621 17.2069 133.621 16.2804C133.621 15.3539 135.543 15.3539 135.566 16.2804Z" clip-rule="evenodd"/><path fill="#4F4188" fill-rule="evenodd" d="M136.655 14.8821C136.655 15.8086 134.709 15.8086 134.709 14.8821C134.709 13.9556 136.655 13.9556 136.655 14.8821Z" clip-rule="evenodd"/><path fill="#4F4188" fill-rule="evenodd" d="M137.998 13.6356C137.998 14.5621 136.052 14.5621 136.052 13.6356C136.052 12.709 137.998 12.709 137.998 13.6356Z" clip-rule="evenodd"/><path fill="#4F4188" fill-rule="evenodd" d="M139.503 12.6248C139.503 13.5513 137.558 13.5513 137.558 12.6248C137.558 11.6983 139.503 11.6983 139.503 12.6248Z" clip-rule="evenodd"/><path fill="#4F4188" fill-rule="evenodd" d="M141.194 11.6309C141.194 12.5574 139.249 12.5574 139.249 11.6309C139.272 10.7043 141.194 10.7043 141.194 11.6309Z" clip-rule="evenodd"/><path fill="#4F4188" fill-rule="evenodd" d="M142.977 10.7381C142.977 11.6646 141.032 11.6646 141.032 10.7381C141.032 9.81155 142.954 9.81155 142.977 10.7381Z" clip-rule="evenodd"/><path fill="#4F4188" fill-rule="evenodd" d="M144.876 10.0811C144.876 11.0076 142.931 11.0076 142.931 10.0811C142.931 9.15457 144.876 9.15457 144.876 10.0811Z" clip-rule="evenodd"/><path fill="#4F4188" fill-rule="evenodd" d="M146.937 9.52521C146.937 10.4517 144.992 10.4517 144.992 9.52521C145.015 8.59869 146.937 8.59869 146.937 9.52521Z" clip-rule="evenodd"/><path fill="#4F4188" fill-rule="evenodd" d="M149.021 9.17142C149.021 10.0979 147.076 10.0979 147.076 9.17142C147.076 8.2449 149.021 8.2449 149.021 9.17142Z" clip-rule="evenodd"/><path fill="#4F4188" fill-rule="evenodd" d="M151.083 9.03663C151.083 9.96315 149.137 9.96315 149.137 9.03663C149.137 8.11011 151.083 8.11011 151.083 9.03663Z" clip-rule="evenodd"/><path fill="#4F4188" fill-rule="evenodd" d="M153.26 8.90192C153.26 9.82844 151.314 9.82844 151.314 8.90192C151.314 7.9754 153.26 7.9754 153.26 8.90192Z" clip-rule="evenodd"/><path fill="#4F4188" fill-rule="evenodd" d="M155.437 9.05348C155.437 9.98 153.491 9.98 153.491 9.05348C153.491 8.12695 155.414 8.12695 155.437 9.05348Z" clip-rule="evenodd"/><path fill="#4F4188" fill-rule="evenodd" d="M157.521 9.42411C157.521 10.3506 155.576 10.3506 155.576 9.42411C155.576 8.49759 157.498 8.49759 157.521 9.42411Z" clip-rule="evenodd"/><path fill="#4F4188" fill-rule="evenodd" d="M159.536 9.87901C159.536 10.8055 157.591 10.8055 157.591 9.87901C157.591 8.95248 159.536 8.95248 159.536 9.87901Z" clip-rule="evenodd"/><path fill="#4F4188" fill-rule="evenodd" d="M161.527 10.5023C161.527 11.4288 159.582 11.4288 159.582 10.5023C159.582 9.57574 161.527 9.57574 161.527 10.5023Z" clip-rule="evenodd"/><path fill="#4F4188" fill-rule="evenodd" d="M163.403 11.2267C163.403 12.1532 161.458 12.1532 161.458 11.2267C161.458 10.3002 163.403 10.3002 163.403 11.2267Z" clip-rule="evenodd"/><path fill="#4F4188" fill-rule="evenodd" d="M165.094 12.1868C165.094 13.1134 163.149 13.1134 163.149 12.1868C163.149 11.2603 165.094 11.2603 165.094 12.1868Z" clip-rule="evenodd"/><path fill="#4F4188" fill-rule="evenodd" d="M166.692 13.1808C166.692 14.1073 164.746 14.1073 164.746 13.1808C164.746 12.2542 166.692 12.2542 166.692 13.1808Z" clip-rule="evenodd"/><path fill="#4F4188" fill-rule="evenodd" d="M168.105 14.3599C168.105 15.2865 166.159 15.2865 166.159 14.3599C166.159 13.4334 168.105 13.4334 168.105 14.3599Z" clip-rule="evenodd"/><path fill="#4F4188" fill-rule="evenodd" d="M169.309 15.556C169.309 16.4825 167.364 16.4825 167.364 15.556C167.387 14.6295 169.309 14.6295 169.309 15.556Z" clip-rule="evenodd"/><path fill="#4F4188" fill-rule="evenodd" d="M170.374 16.8699C170.374 17.7965 168.429 17.7965 168.429 16.8699C168.429 15.9434 170.374 15.9434 170.374 16.8699Z" clip-rule="evenodd"/><path fill="#4F4188" fill-rule="evenodd" d="M171.231 18.3862C171.231 19.3128 169.286 19.3128 169.286 18.3862C169.286 17.4597 171.231 17.4597 171.231 18.3862Z" clip-rule="evenodd"/><path fill="#4F4188" fill-rule="evenodd" d="M171.833 19.8854C171.833 20.812 169.888 20.812 169.888 19.8854C169.888 18.9589 171.833 18.9589 171.833 19.8854Z" clip-rule="evenodd"/><path fill="#4F4188" fill-rule="evenodd" d="M172.296 21.3509C172.296 22.2774 170.351 22.2774 170.351 21.3509C170.351 20.4244 172.273 20.4244 172.296 21.3509Z" clip-rule="evenodd"/><path fill="#4F4188" fill-rule="evenodd" d="M172.296 22.884C172.296 23.8105 170.351 23.8105 170.351 22.884C170.351 21.9575 172.273 21.9575 172.296 22.884Z" clip-rule="evenodd"/><path fill="#4F4188" fill-rule="evenodd" d="M172.296 24.1979C172.296 25.1245 170.351 25.1245 170.351 24.1979C170.351 23.2714 172.273 23.2714 172.296 24.1979Z" clip-rule="evenodd"/><path fill="#4F4188" fill-rule="evenodd" d="M172.111 25.7141C172.111 26.6406 170.166 26.6406 170.166 25.7141C170.166 24.7876 172.111 24.7876 172.111 25.7141Z" clip-rule="evenodd"/><path fill="#4F4188" fill-rule="evenodd" d="M171.555 27.1629C171.555 28.0894 169.61 28.0894 169.61 27.1629C169.61 26.2364 171.555 26.2364 171.555 27.1629Z" clip-rule="evenodd"/><path fill="#4F4188" fill-rule="evenodd" d="M170.953 28.6621C170.953 29.5886 169.008 29.5886 169.008 28.6621C169.008 27.7356 170.953 27.7356 170.953 28.6621Z" clip-rule="evenodd"/><path fill="#4F4188" fill-rule="evenodd" d="M169.957 30.0435C169.957 30.97 168.012 30.97 168.012 30.0435C168.012 29.1169 169.957 29.1169 169.957 30.0435Z" clip-rule="evenodd"/><path fill="#4F4188" fill-rule="evenodd" d="M168.869 31.4417C168.869 32.3682 166.923 32.3682 166.923 31.4417C166.923 30.5152 168.869 30.5152 168.869 31.4417Z" clip-rule="evenodd"/><path fill="#4F4188" fill-rule="evenodd" d="M167.572 32.6378C167.572 33.5644 165.627 33.5644 165.627 32.6378C165.627 31.7113 167.549 31.7113 167.572 32.6378Z" clip-rule="evenodd"/><path fill="#4F4188" fill-rule="evenodd" d="M166.043 33.7833C166.043 34.7098 164.098 34.7098 164.098 33.7833C164.098 32.8567 166.043 32.8567 166.043 33.7833Z" clip-rule="evenodd"/><path fill="#4F4188" fill-rule="evenodd" d="M164.353 34.7941C164.353 35.7207 162.408 35.7207 162.408 34.7941C162.408 33.8675 164.353 33.8675 164.353 34.7941Z" clip-rule="evenodd"/><path fill="#4F4188" fill-rule="evenodd" d="M162.662 35.6363C162.662 36.5628 160.717 36.5628 160.717 35.6363C160.717 34.7098 162.639 34.7098 162.662 35.6363Z" clip-rule="evenodd"/><path fill="#4F4188" fill-rule="evenodd" d="M160.763 36.3608C160.763 37.2873 158.818 37.2873 158.818 36.3608C158.841 35.4343 160.763 35.4343 160.763 36.3608Z" clip-rule="evenodd"/><path fill="#4F4188" fill-rule="evenodd" d="M158.679 36.9503C158.679 37.8768 156.734 37.8768 156.734 36.9503C156.734 36.0237 158.679 36.0237 158.679 36.9503Z" clip-rule="evenodd"/><path fill="#4F4188" fill-rule="evenodd" d="M154.487 37.4895C154.487 38.416 152.542 38.416 152.542 37.4895C152.565 36.5629 154.487 36.5629 154.487 37.4895Z" clip-rule="evenodd"/><path fill="#4F4188" fill-rule="evenodd" d="M152.426 37.5904C152.426 38.5169 150.481 38.5169 150.481 37.5904C150.504 36.6639 152.426 36.6639 152.426 37.5904Z" clip-rule="evenodd"/><path fill="#4F4188" fill-rule="evenodd" d="M156.641 37.2198C156.641 38.1463 154.696 38.1463 154.696 37.2198C154.719 36.2933 156.641 36.2933 156.641 37.2198Z" clip-rule="evenodd"/><path fill="#4F4188" fill-rule="evenodd" d="M150.133 37.5062C150.133 38.4327 148.188 38.4327 148.188 37.5062C148.188 36.5796 150.133 36.5796 150.133 37.5062Z" clip-rule="evenodd"/><path fill="#4F4188" fill-rule="evenodd" d="M130.772 21.9912C130.749 23.0525 128.572 23.0525 128.549 21.9912C128.572 20.9299 130.749 20.9299 130.772 21.9912Z" clip-rule="evenodd"/><path fill="#4F4188" fill-rule="evenodd" d="M131.097 20.256C131.073 21.3173 128.896 21.3173 128.873 20.256C128.896 19.1947 131.073 19.1947 131.097 20.256Z" clip-rule="evenodd"/><path fill="#4F4188" fill-rule="evenodd" d="M131.606 18.5547C131.583 19.6159 129.406 19.6159 129.383 18.5547C129.429 17.4934 131.583 17.5102 131.606 18.5547Z" clip-rule="evenodd"/><path fill="#4F4188" fill-rule="evenodd" d="M132.393 16.9542C132.37 18.0155 130.193 18.0155 130.17 16.9542C130.193 15.8929 132.37 15.8929 132.393 16.9542Z" clip-rule="evenodd"/><path fill="#4F4188" fill-rule="evenodd" d="M133.505 15.337C133.482 16.3983 131.305 16.3983 131.282 15.337C131.305 14.2757 133.482 14.2757 133.505 15.337Z" clip-rule="evenodd"/><path fill="#4F4188" fill-rule="evenodd" d="M134.848 13.8209C134.825 14.8822 132.648 14.8822 132.625 13.8209C132.648 12.7596 134.802 12.7596 134.848 13.8209Z" clip-rule="evenodd"/><path fill="#4F4188" fill-rule="evenodd" d="M136.307 12.5069C136.284 13.5682 134.107 13.5682 134.084 12.5069C134.107 11.4456 136.261 11.4456 136.307 12.5069Z" clip-rule="evenodd"/><path fill="#4F4188" fill-rule="evenodd" d="M137.952 11.2098C137.928 12.2711 135.752 12.2711 135.728 11.2098C135.752 10.1654 137.928 10.1654 137.952 11.2098Z" clip-rule="evenodd"/><path fill="#4F4188" fill-rule="evenodd" d="M139.851 10.199C139.827 11.2603 137.65 11.2603 137.627 10.199C137.65 9.1377 139.827 9.1377 139.851 10.199Z" clip-rule="evenodd"/><path fill="#4F4188" fill-rule="evenodd" d="M141.912 9.2388C141.889 10.3001 139.712 10.3001 139.689 9.2388C139.735 8.17752 141.889 8.17752 141.912 9.2388Z" clip-rule="evenodd"/><path fill="#4F4188" fill-rule="evenodd" d="M144.112 8.41344C144.089 9.47474 141.912 9.47474 141.889 8.41344C141.912 7.35214 144.089 7.35214 144.112 8.41344Z" clip-rule="evenodd"/><path fill="#4F4188" fill-rule="evenodd" d="M146.405 7.80683C146.381 8.86812 144.205 8.86812 144.181 7.80683C144.205 6.74554 146.358 6.74554 146.405 7.80683Z" clip-rule="evenodd"/><path fill="#4F4188" fill-rule="evenodd" d="M148.721 7.48693C148.698 8.54823 146.521 8.54823 146.497 7.48693C146.521 6.42562 148.698 6.42562 148.721 7.48693Z" clip-rule="evenodd"/><path fill="#4F4188" fill-rule="evenodd" d="M151.106 7.28469C151.083 8.34599 148.906 8.34599 148.883 7.28469C148.906 6.22338 151.083 6.22338 151.106 7.28469Z" clip-rule="evenodd"/><path fill="#4F4188" fill-rule="evenodd" d="M153.445 7.21727C153.422 8.27858 151.245 8.27858 151.222 7.21727C151.268 6.15597 153.422 6.15597 153.445 7.21727Z" clip-rule="evenodd"/><path fill="#4F4188" fill-rule="evenodd" d="M155.853 7.31838C155.83 8.37968 153.653 8.37968 153.63 7.31838C153.653 6.25707 155.83 6.25707 155.853 7.31838Z" clip-rule="evenodd"/><path fill="#4F4188" fill-rule="evenodd" d="M158.192 7.70586C158.169 8.76716 155.992 8.76716 155.969 7.70586C155.992 6.64456 158.169 6.64456 158.192 7.70586Z" clip-rule="evenodd"/><path fill="#4F4188" fill-rule="evenodd" d="M160.555 8.2112C160.532 9.27251 158.355 9.27251 158.332 8.2112C158.378 7.1499 160.532 7.1499 160.555 8.2112Z" clip-rule="evenodd"/><path fill="#4F4188" fill-rule="evenodd" d="M162.709 8.83442C162.685 9.89571 160.509 9.89571 160.485 8.83442C160.509 7.77313 162.685 7.77313 162.709 8.83442Z" clip-rule="evenodd"/><path fill="#4F4188" fill-rule="evenodd" d="M164.816 9.77782C164.793 10.8391 162.616 10.8391 162.593 9.77782C162.639 8.71652 164.793 8.71652 164.816 9.77782Z" clip-rule="evenodd"/><path fill="#4F4188" fill-rule="evenodd" d="M166.761 10.7549C166.738 11.8161 164.561 11.8161 164.538 10.7549C164.561 9.69357 166.715 9.69357 166.761 10.7549Z" clip-rule="evenodd"/><path fill="#4F4188" fill-rule="evenodd" d="M168.521 11.9174C168.498 12.9787 166.321 12.9787 166.298 11.9174C166.321 10.8561 168.498 10.8561 168.521 11.9174Z" clip-rule="evenodd"/><path fill="#4F4188" fill-rule="evenodd" d="M170.096 13.2313C170.073 14.2926 167.896 14.2926 167.873 13.2313C167.896 12.17 170.073 12.17 170.096 13.2313Z" clip-rule="evenodd"/><path fill="#4F4188" fill-rule="evenodd" d="M171.486 14.6968C171.463 15.7581 169.286 15.7581 169.263 14.6968C169.309 13.6355 171.463 13.6355 171.486 14.6968Z" clip-rule="evenodd"/><path fill="#4F4188" fill-rule="evenodd" d="M172.621 16.1625C172.597 17.2238 170.42 17.2238 170.397 16.1625C170.42 15.1013 172.597 15.1013 172.621 16.1625Z" clip-rule="evenodd"/><path fill="#4F4188" fill-rule="evenodd" d="M173.547 17.8133C173.524 18.8746 171.347 18.8746 171.324 17.8133C171.347 16.752 173.524 16.752 173.547 17.8133Z" clip-rule="evenodd"/><path fill="#4F4188" fill-rule="evenodd" d="M174.311 19.599C174.288 20.6603 172.111 20.6603 172.088 19.599C172.111 18.5377 174.288 18.5377 174.311 19.599Z" clip-rule="evenodd"/><path fill="#4F4188" fill-rule="evenodd" d="M174.705 21.25C174.682 22.3113 172.505 22.3113 172.481 21.25C172.528 20.1887 174.682 20.1887 174.705 21.25Z" clip-rule="evenodd"/><path fill="#4F4188" fill-rule="evenodd" d="M174.936 22.9008C174.913 23.9621 172.736 23.9621 172.713 22.9008C172.76 21.8395 174.913 21.8395 174.936 22.9008Z" clip-rule="evenodd"/><path fill="#4F4188" fill-rule="evenodd" d="M174.936 24.2486C174.913 25.3099 172.736 25.3099 172.713 24.2486C172.76 23.1872 174.913 23.1872 174.936 24.2486Z" clip-rule="evenodd"/><path fill="#4F4188" fill-rule="evenodd" d="M173.987 27.685C173.964 28.7463 171.787 28.7463 171.764 27.685C171.787 26.6237 173.964 26.6237 173.987 27.685Z" clip-rule="evenodd"/><path fill="#4F4188" fill-rule="evenodd" d="M174.496 26.0174C174.473 27.0787 172.296 27.0787 172.273 26.0174C172.296 24.9561 174.473 24.9561 174.496 26.0174Z" clip-rule="evenodd"/><path fill="#4F4188" fill-rule="evenodd" d="M173.222 29.3696C173.199 30.4309 171.022 30.4309 170.999 29.3696C171.022 28.3083 173.199 28.3083 173.222 29.3696Z" clip-rule="evenodd"/><path fill="#4F4188" fill-rule="evenodd" d="M172.203 30.9363C172.18 31.9976 170.003 31.9976 169.98 30.9363C170.003 29.875 172.18 29.875 172.203 30.9363Z" clip-rule="evenodd"/><path fill="#4F4188" fill-rule="evenodd" d="M170.976 32.385C170.953 33.4463 168.776 33.4463 168.753 32.385C168.776 31.3237 170.953 31.3237 170.976 32.385Z" clip-rule="evenodd"/><path fill="#4F4188" fill-rule="evenodd" d="M169.401 33.8674C169.378 34.9287 167.201 34.9287 167.178 33.8674C167.224 32.8061 169.378 32.8061 169.401 33.8674Z" clip-rule="evenodd"/><path fill="#4F4188" fill-rule="evenodd" d="M167.78 35.0972C167.757 36.1586 165.58 36.1586 165.557 35.0972C165.58 34.0359 167.734 34.0359 167.78 35.0972Z" clip-rule="evenodd"/><path fill="#4F4188" fill-rule="evenodd" d="M165.974 36.2091C165.95 37.2704 163.774 37.2704 163.75 36.2091C163.774 35.1478 165.95 35.1478 165.974 36.2091Z" clip-rule="evenodd"/><path fill="#4F4188" fill-rule="evenodd" d="M161.852 37.9778C161.828 39.0391 159.651 39.0391 159.628 37.9778C159.651 36.9166 161.828 36.9166 161.852 37.9778Z" clip-rule="evenodd"/><path fill="#4F4188" fill-rule="evenodd" d="M159.489 38.5675C159.466 39.6288 157.289 39.6288 157.266 38.5675C157.289 37.5062 159.466 37.5062 159.489 38.5675Z" clip-rule="evenodd"/><path fill="#4F4188" fill-rule="evenodd" d="M157.174 39.0056C157.15 40.0668 154.973 40.0668 154.95 39.0056C154.973 37.9443 157.15 37.9443 157.174 39.0056Z" clip-rule="evenodd"/><path fill="#4F4188" fill-rule="evenodd" d="M163.867 37.1693C163.843 38.2306 161.666 38.2306 161.643 37.1693C161.69 36.1249 163.843 36.1249 163.867 37.1693Z" clip-rule="evenodd"/><path fill="#4F4188" fill-rule="evenodd" d="M128.317 25.714C128.294 26.7753 126.117 26.7753 126.094 25.714C126.117 24.6527 128.294 24.6527 128.317 25.714Z" clip-rule="evenodd"/><path fill="#4F4188" fill-rule="evenodd" d="M128.155 23.7767C128.132 24.838 125.955 24.838 125.932 23.7767C125.955 22.7154 128.132 22.7154 128.155 23.7767Z" clip-rule="evenodd"/><path fill="#4F4188" fill-rule="evenodd" d="M128.155 21.8395C128.132 22.9008 125.955 22.9008 125.932 21.8395C125.955 20.7783 128.132 20.7783 128.155 21.8395Z" clip-rule="evenodd"/><path fill="#4F4188" fill-rule="evenodd" d="M128.526 19.9191C128.503 20.9804 126.326 20.9804 126.302 19.9191C126.349 18.8578 128.503 18.8578 128.526 19.9191Z" clip-rule="evenodd"/><path fill="#4F4188" fill-rule="evenodd" d="M129.151 18.0155C129.128 19.0768 126.951 19.0768 126.928 18.0155C126.951 16.9542 129.128 16.9542 129.151 18.0155Z" clip-rule="evenodd"/><path fill="#4F4188" fill-rule="evenodd" d="M130.124 16.1457C130.101 17.2069 127.924 17.2069 127.901 16.1457C127.947 15.0844 130.101 15.0844 130.124 16.1457Z" clip-rule="evenodd"/><path fill="#4F4188" fill-rule="evenodd" d="M131.282 14.3937C131.259 15.455 129.082 15.455 129.059 14.3937C129.082 13.3492 131.259 13.3492 131.282 14.3937Z" clip-rule="evenodd"/><path fill="#4F4188" fill-rule="evenodd" d="M132.694 12.7764C132.671 13.8377 130.494 13.8377 130.471 12.7764C130.494 11.7151 132.671 11.7151 132.694 12.7764Z" clip-rule="evenodd"/><path fill="#4F4188" fill-rule="evenodd" d="M134.362 11.2098C134.339 12.2711 132.162 12.2711 132.139 11.2098C132.185 10.1654 134.339 10.1654 134.362 11.2098Z" clip-rule="evenodd"/><path fill="#4F4188" fill-rule="evenodd" d="M136.307 9.82837C136.284 10.8896 134.107 10.8896 134.084 9.82837C134.107 8.76709 136.261 8.76709 136.307 9.82837Z" clip-rule="evenodd"/><path fill="#4F4188" fill-rule="evenodd" d="M147.653 32.2166C147.653 32.2671 147.631 32.3008 147.609 32.3344C147.631 32.3008 147.631 32.2671 147.653 32.2166Z" clip-rule="evenodd"/><path fill="#4F4188" fill-rule="evenodd" d="M163.033 23.541C163.797 23.4905 163.797 22.6313 163.009 22.5976C163.264 22.5471 163.496 22.3955 163.496 22.1428C163.496 21.8396 163.218 21.688 162.917 21.6711C163.519 21.5027 163.426 20.7446 162.662 20.7614C162.593 20.7614 162.546 20.7614 162.5 20.7783C163.148 20.6435 163.056 19.8518 162.268 19.8518C162.199 19.8518 162.153 19.8518 162.106 19.8686C162.616 19.6328 162.292 18.8747 161.527 19.0768C161.921 18.8242 161.62 18.3019 161.087 18.3188C160.971 18.3188 160.879 18.3356 160.786 18.3693C161.157 18.1335 161.041 17.5607 160.393 17.5607C160.254 17.5607 160.115 17.5944 160.022 17.6449C160.091 17.5776 160.138 17.4765 160.138 17.3586C160.161 16.9711 159.489 16.7689 159.119 17.0048C159.443 16.7353 159.142 16.2467 158.632 16.2636C158.401 16.2804 158.239 16.3478 158.123 16.432C158.285 16.1625 158.1 15.775 157.567 15.775C157.359 15.775 157.197 15.8424 157.081 15.9266C157.173 15.674 156.965 15.3539 156.502 15.3539C156.224 15.3539 156.039 15.455 155.969 15.5897C156.039 15.337 155.853 15.0338 155.39 15.0338C155.089 15.0338 154.904 15.1517 154.834 15.3202C154.834 15.2865 154.834 15.2697 154.834 15.236C154.858 14.7306 153.815 14.6127 153.63 15.1012C153.63 14.5453 152.495 14.5284 152.403 15.0338C152.356 14.8317 152.102 14.6632 151.801 14.6632C151.476 14.6632 151.222 14.8485 151.198 15.0675C151.175 14.5284 150.04 14.5284 149.971 15.0507C149.832 14.579 148.744 14.6127 148.744 15.1686C148.744 15.2023 148.744 15.2528 148.767 15.2865C148.512 14.8654 147.423 15.017 147.609 15.5729C147.516 15.4213 147.308 15.3202 147.053 15.3202C146.59 15.3202 146.404 15.6066 146.474 15.8593C146.381 15.7413 146.219 15.6571 145.964 15.674C145.432 15.674 145.247 16.0951 145.455 16.3478C145.362 16.2467 145.2 16.1793 144.945 16.1625C144.413 16.1456 144.135 16.6679 144.505 16.9206C143.996 16.5331 143.116 17.089 143.579 17.4933C143.232 17.2238 142.514 17.4259 142.537 17.8134C142.606 18.6052 144.251 18.2177 143.649 17.5439C144.204 17.9482 145.084 17.308 144.529 16.9037C145.2 17.308 145.779 16.6847 145.478 16.3478C145.571 16.4657 145.733 16.5331 145.988 16.5331C146.451 16.5331 146.636 16.2467 146.567 15.994C146.659 16.112 146.821 16.1962 147.076 16.1793C147.447 16.1793 147.771 15.9098 147.655 15.6403C147.91 16.0614 148.836 15.9266 148.813 15.455C148.813 15.4044 148.813 15.3707 148.79 15.337C149.021 15.7245 149.925 15.674 149.971 15.1854C150.11 15.6234 151.129 15.6234 151.175 15.118C151.198 15.6571 152.287 15.6571 152.379 15.1686C152.472 15.5897 153.398 15.674 153.584 15.236C153.584 15.7582 154.58 15.8087 154.788 15.3876C154.719 15.6403 154.927 15.9266 155.39 15.9266C155.668 15.9266 155.853 15.8256 155.946 15.6908C155.877 15.9435 156.062 16.2467 156.525 16.2467C156.733 16.2467 156.896 16.1962 156.988 16.0951C156.896 16.3646 157.104 16.6847 157.59 16.6847C157.799 16.6847 157.961 16.6173 158.053 16.5331C157.868 16.9037 158.424 17.4428 159.072 17.0553C158.47 17.5776 159.42 17.9987 159.883 17.746C159.651 18.0155 159.814 18.4704 160.369 18.4704C160.485 18.4704 160.578 18.4535 160.67 18.4199C160.207 18.6894 160.531 19.3801 161.296 19.1779C160.902 19.4306 161.203 19.9528 161.736 19.936C161.782 19.936 161.828 19.936 161.875 19.9191C161.412 20.1381 161.527 20.7951 162.245 20.7951C162.315 20.7951 162.361 20.7951 162.407 20.7783C161.782 20.9131 161.828 21.6711 162.569 21.7048C162.338 21.7722 162.153 21.907 162.153 22.1428C162.153 22.4292 162.431 22.5976 162.732 22.6145C162.083 22.7324 162.106 23.4736 162.801 23.541C162.5 23.5579 162.222 23.7263 162.222 24.0127C162.222 24.2654 162.407 24.4002 162.662 24.4675C162.338 24.4675 161.99 24.6192 162.014 24.9392C162.014 25.1414 162.153 25.2762 162.338 25.3604C162.014 25.3772 161.713 25.5288 161.736 25.8321C161.736 26.0174 161.852 26.1521 162.014 26.2364C161.666 26.2027 161.273 26.3711 161.296 26.7081C161.296 26.8597 161.365 26.9776 161.481 27.0618C161.134 27.0281 160.717 27.1797 160.74 27.5335C160.74 27.702 160.809 27.803 160.948 27.8873C160.555 27.7525 159.976 27.8873 159.999 28.3084C159.999 28.46 160.068 28.578 160.184 28.6453C159.814 28.4769 159.188 28.5948 159.188 28.9991C159.188 29.1339 159.258 29.2349 159.35 29.3023C159.003 29.117 158.355 29.2349 158.355 29.6561C158.355 29.7572 158.378 29.8246 158.447 29.8919C158.123 29.6224 157.336 29.7066 157.359 30.1783C157.359 30.2289 157.359 30.2794 157.382 30.3299C157.289 30.2457 157.127 30.1783 156.919 30.1783C156.479 30.1783 156.27 30.4647 156.34 30.7005C156.224 30.5995 156.062 30.5321 155.83 30.5321C155.413 30.5321 155.205 30.7511 155.182 30.9701C155.066 30.869 154.904 30.8016 154.672 30.8016C154.302 30.8016 154.093 30.9701 154.024 31.1722C153.931 31.0375 153.746 30.9532 153.468 30.9532C153.121 30.9532 152.912 31.1048 152.843 31.2901C152.773 31.1217 152.565 30.9701 152.217 30.9701C151.893 30.9701 151.685 31.1048 151.615 31.2733C151.546 31.1048 151.337 30.9701 150.99 30.9701C150.666 30.9701 150.457 31.1048 150.388 31.2565C150.318 31.0543 150.11 30.9027 149.763 30.9027C149.461 30.9027 149.253 31.0206 149.16 31.1722C149.114 30.7511 148.211 30.6332 147.979 31.0543C148.28 30.5321 147.169 30.1783 146.868 30.7005C147.146 30.1446 146.127 29.9256 145.802 30.2794C145.988 30.0099 145.826 29.6056 145.27 29.6056C145.084 29.6056 144.945 29.6561 144.853 29.7235C145.061 29.4539 144.899 29.016 144.343 29.0328C144.158 29.0328 144.042 29.0833 143.926 29.1507C144.228 28.898 144.065 28.3927 143.463 28.3927C143.324 28.3927 143.209 28.4263 143.116 28.46C143.463 28.1568 143.116 27.5503 142.398 27.7525C142.769 27.483 142.467 26.9944 141.958 27.0113C141.865 27.0113 141.773 27.0281 141.703 27.045C142.166 26.8428 142.074 26.2027 141.402 26.2027C141.31 26.2027 141.24 26.2195 141.171 26.2364C141.333 26.169 141.448 26.0511 141.448 25.8658C141.448 25.293 140.198 25.293 140.221 25.8658C140.221 26.2364 140.731 26.3711 141.078 26.2701C140.615 26.4722 140.707 27.1124 141.379 27.1124C141.472 27.1124 141.541 27.0955 141.611 27.0787C141.055 27.3145 141.402 28.0894 142.19 27.8704C141.819 28.14 142.12 28.6285 142.653 28.6116C142.792 28.6116 142.907 28.578 143 28.5274C142.699 28.7801 142.861 29.2855 143.463 29.2855C143.649 29.2855 143.764 29.2349 143.88 29.1676C143.579 29.4203 143.741 29.9256 144.343 29.9256C144.529 29.9256 144.668 29.8751 144.76 29.8077C144.552 30.0772 144.714 30.5152 145.27 30.4984C145.501 30.4984 145.64 30.431 145.756 30.3299C145.71 30.3973 145.687 30.4647 145.687 30.5489C145.663 31.0206 146.613 31.1554 146.845 30.7342C146.682 31.0206 146.983 31.3407 147.423 31.3407C147.678 31.3407 147.887 31.2228 147.979 31.0712C147.678 31.6608 148.836 31.8798 149.114 31.4249C149.137 31.6439 149.346 31.8461 149.763 31.8461C150.087 31.8461 150.295 31.7113 150.365 31.5597C150.434 31.7618 150.643 31.9134 150.99 31.9134C151.314 31.9134 151.523 31.7787 151.592 31.6102C151.662 31.7787 151.87 31.9303 152.217 31.9134C152.565 31.9134 152.773 31.7618 152.843 31.5765C152.912 31.745 153.121 31.8966 153.468 31.8966C153.839 31.8966 154.047 31.7281 154.116 31.526C154.209 31.6608 154.394 31.745 154.672 31.745C155.089 31.745 155.298 31.526 155.321 31.307C155.436 31.4081 155.599 31.4755 155.83 31.4755C156.317 31.4755 156.525 31.1722 156.479 30.9195C156.571 31.0038 156.733 31.0712 156.942 31.0712C157.451 31.0712 157.637 30.7174 157.498 30.4647C157.822 30.7342 158.609 30.65 158.609 30.1783C158.609 30.0772 158.586 30.0099 158.517 29.9425C158.841 30.212 159.628 30.1278 159.605 29.6561C159.605 29.5213 159.536 29.4202 159.443 29.3529C159.79 29.5382 160.439 29.4203 160.439 28.9991C160.439 28.8643 160.369 28.7633 160.277 28.6959C160.67 28.898 161.342 28.7633 161.319 28.3084C161.319 28.1568 161.249 28.022 161.11 27.9547C161.504 28.0894 162.083 27.9547 162.06 27.5335C162.06 27.3819 161.99 27.264 161.852 27.1797C162.199 27.2134 162.616 27.0618 162.593 26.7081C162.593 26.5228 162.477 26.388 162.315 26.3038C162.662 26.3206 163.056 26.169 163.033 25.8321C163.033 25.6299 162.894 25.4951 162.708 25.4109C163.033 25.3941 163.334 25.2425 163.311 24.9392C163.311 24.6865 163.125 24.5518 162.871 24.4844C163.195 24.4844 163.542 24.3328 163.519 24.0127C163.588 23.7263 163.311 23.5747 163.033 23.541ZM157.011 16.0783C157.034 16.0109 157.081 15.9603 157.127 15.9098C157.104 15.9772 157.058 16.0277 157.011 16.0783Z" clip-rule="evenodd"/><path fill="#4F4188" fill-rule="evenodd" d="M155.969 29.5718C155.923 29.5213 155.876 29.4539 155.876 29.3697C155.923 29.4371 155.946 29.5045 155.969 29.5718Z" clip-rule="evenodd"/><path fill="#4F4188" fill-rule="evenodd" d="M154.462 16.5836C154.462 16.651 154.439 16.7016 154.394 16.769C154.394 16.6847 154.417 16.6342 154.462 16.5836Z" clip-rule="evenodd"/><path fill="#4F4188" fill-rule="evenodd" d="M155.969 29.5718C155.923 29.5213 155.876 29.4539 155.876 29.3697C155.923 29.4371 155.946 29.5045 155.969 29.5718Z" clip-rule="evenodd"/><path fill="#4F4188" fill-rule="evenodd" d="M154.973 28.561C154.973 28.999 154.093 29.1169 153.862 28.7126C154.093 29.2012 153.028 29.4539 152.773 28.9822C152.611 29.4202 151.685 29.3528 151.662 28.898C151.592 29.4033 150.527 29.3528 150.527 28.8643C150.365 29.2854 149.369 29.2349 149.392 28.7463C149.299 28.8979 149.091 28.999 148.859 28.999C148.373 28.999 148.211 28.6453 148.35 28.4094C148.257 28.5273 148.095 28.6284 147.84 28.6284C147.354 28.6284 147.169 28.2578 147.331 28.0051C147.238 28.0725 147.099 28.1062 146.937 28.123C146.451 28.1399 146.173 27.7019 146.497 27.4492C145.965 27.7693 145.247 27.1965 145.733 26.8427C145.177 27.1628 144.482 26.5395 145.015 26.2026C144.367 26.3879 143.95 25.6635 144.552 25.4445C143.764 25.613 143.533 24.7538 144.251 24.6359H144.228C143.903 24.6359 143.649 24.4506 143.649 24.2148C143.649 23.9958 143.857 23.8442 144.135 23.8105C143.44 23.7936 143.417 23.0187 144.112 22.985C143.417 22.9513 143.44 22.1764 144.135 22.1596C143.44 22.0922 143.533 21.3173 144.228 21.3341C144.969 21.3173 144.992 22.1596 144.251 22.1764C144.899 22.227 144.876 22.9682 144.228 23.0019C144.876 23.0356 144.922 23.7599 144.251 23.8273C144.922 23.8442 144.946 24.5686 144.367 24.6528H144.39C144.969 24.6359 145.177 25.2592 144.668 25.4445C145.223 25.2929 145.663 25.8657 145.223 26.1521C145.756 25.9836 146.242 26.5227 145.849 26.8259C146.358 26.5227 147.053 27.0786 146.613 27.4324C147.238 27.1291 147.678 27.6345 147.47 27.9546C147.562 27.8872 147.678 27.8535 147.84 27.8535C148.327 27.8535 148.489 28.1904 148.373 28.4431C148.466 28.3252 148.628 28.2241 148.859 28.241C149.184 28.241 149.438 28.4263 149.438 28.6621C149.647 28.241 150.55 28.3757 150.55 28.8137C150.712 28.4094 151.638 28.4263 151.662 28.898C151.708 28.4768 152.565 28.3926 152.773 28.7969C152.889 28.4263 153.653 28.3926 153.839 28.7463C153.607 28.0388 154.996 27.9377 154.973 28.561Z" clip-rule="evenodd"/><path fill="#4F4188" fill-rule="evenodd" d="M150.041 21.2331C150.643 21.2331 150.643 21.9069 150.041 21.9069C149.925 21.9069 149.855 21.8901 149.786 21.8564C149.971 22.0585 149.832 22.3954 149.415 22.3954C149.369 22.3954 149.346 22.3954 149.323 22.3954C149.624 22.5639 149.531 22.985 149.091 23.0019C149.531 23.0861 149.531 23.5746 149.091 23.6589C149.531 23.6757 149.624 24.0632 149.369 24.2485C149.415 24.2485 149.462 24.2316 149.508 24.2316C149.948 24.2316 150.064 24.5854 149.879 24.7707C149.948 24.737 150.041 24.7201 150.133 24.7201C150.735 24.7201 150.735 25.394 150.133 25.394C149.693 25.394 149.577 25.0402 149.763 24.8549C149.693 24.8886 149.601 24.9055 149.508 24.9055C149.045 24.9055 148.929 24.5012 149.207 24.3159C149.161 24.3159 149.114 24.3327 149.068 24.3327C148.512 24.3327 148.466 23.7599 148.929 23.6757C148.373 23.6589 148.373 23.0356 148.906 23.0019C148.443 22.9176 148.466 22.328 149.022 22.3449C149.068 22.3449 149.091 22.3449 149.114 22.3449C148.813 22.1764 148.906 21.7216 149.392 21.7384C149.508 21.7384 149.577 21.7553 149.647 21.789C149.485 21.57 149.624 21.2162 150.041 21.2331Z" clip-rule="evenodd"/><path fill="#4F4188" fill-rule="evenodd" d="M149.392 26.3374C148.975 26.3374 148.859 26.0173 148.998 25.8151C148.929 25.8994 148.813 25.9499 148.628 25.9499C148.211 25.9499 148.072 25.613 148.257 25.4108C148.188 25.4445 148.095 25.4614 148.003 25.4614C147.493 25.4614 147.424 24.9897 147.771 24.8381C147.725 24.8381 147.701 24.8549 147.655 24.8381C147.099 24.8381 147.053 24.2653 147.539 24.1811C147.516 24.1811 147.493 24.1811 147.47 24.1811C146.891 24.1811 146.868 23.5409 147.424 23.5072C146.868 23.4735 146.891 22.8502 147.447 22.8334C146.914 22.7829 146.937 22.1596 147.516 22.1596C147.539 22.1596 147.562 22.1596 147.586 22.1596C147.238 22.008 147.308 21.5194 147.817 21.5194C147.864 21.5194 147.91 21.5194 147.933 21.5363C147.655 21.3678 147.748 20.9298 148.234 20.9298C148.35 20.9298 148.419 20.9467 148.489 20.9804C148.304 20.7782 148.419 20.4244 148.836 20.4244C149.438 20.4244 149.438 21.0983 148.836 21.0983C148.744 21.0983 148.651 21.0814 148.582 21.0477C148.767 21.2499 148.651 21.6037 148.234 21.6037C148.188 21.6037 148.141 21.6037 148.118 21.5868C148.396 21.7553 148.304 22.1933 147.817 22.1933C147.794 22.1933 147.771 22.1933 147.748 22.1933C148.095 22.3449 148.026 22.8166 147.539 22.8334C148.049 22.8839 148.049 23.4735 147.516 23.5072C148.026 23.5241 148.049 24.08 147.609 24.1642C147.632 24.1642 147.655 24.1642 147.678 24.1642C148.188 24.1642 148.257 24.6528 147.91 24.7875C147.933 24.7875 147.979 24.7707 148.026 24.7707C148.443 24.7707 148.582 25.1076 148.396 25.3097C148.466 25.2761 148.558 25.2592 148.651 25.2592C149.068 25.2592 149.184 25.5793 149.045 25.7814C149.114 25.6972 149.23 25.6467 149.415 25.6467C149.994 25.6467 149.994 26.3374 149.392 26.3374Z" clip-rule="evenodd"/><path fill="#4F4188" fill-rule="evenodd" d="M150.226 27.9714C149.878 27.9714 149.716 27.7356 149.786 27.5334C149.716 27.6514 149.577 27.7524 149.323 27.7524C148.929 27.7524 148.767 27.4661 148.859 27.2639C148.767 27.3481 148.651 27.3987 148.466 27.3987C148.049 27.3987 147.91 27.1123 148.002 26.8933C147.933 26.9438 147.817 26.9775 147.678 26.9775C147.215 26.9775 147.076 26.5901 147.308 26.3879C147.238 26.4216 147.146 26.4385 147.053 26.4385C146.567 26.4385 146.451 26.051 146.682 25.832C146.636 25.8489 146.567 25.8488 146.497 25.8488C145.988 25.8488 145.895 25.4109 146.173 25.2087C146.127 25.2087 146.103 25.2087 146.057 25.2087C145.501 25.2087 145.432 24.6865 145.802 24.5349C145.779 24.5349 145.779 24.5349 145.756 24.5349C145.154 24.5349 145.108 23.8779 145.663 23.8105C145.154 23.7431 145.177 23.1367 145.71 23.103C145.108 23.0693 145.131 22.3786 145.756 22.3786H145.779C145.27 22.2944 145.316 21.6542 145.918 21.6711C145.941 21.6711 145.964 21.6711 145.988 21.6711C145.524 21.5531 145.594 20.9635 146.173 20.9635C146.196 20.9635 146.242 20.9635 146.266 20.9635C145.872 20.8119 145.964 20.2728 146.497 20.2897C147.146 20.2897 147.146 21.0141 146.497 21.0141C146.451 21.0141 146.428 21.0141 146.404 21.0141C146.798 21.1657 146.706 21.7048 146.173 21.6879C146.15 21.6879 146.127 21.6879 146.103 21.6879C146.567 21.8058 146.497 22.3954 145.918 22.3954H145.895C146.381 22.4797 146.358 23.0693 145.826 23.103C146.381 23.1367 146.404 23.76 145.872 23.8105C146.312 23.8779 146.358 24.3327 146.011 24.4843C146.034 24.4843 146.034 24.4843 146.057 24.4843C146.567 24.4843 146.659 24.9223 146.381 25.1245C146.428 25.1245 146.451 25.1245 146.497 25.1245C146.983 25.1245 147.099 25.5288 146.868 25.7309C146.914 25.7141 146.983 25.7141 147.053 25.7141C147.516 25.7141 147.655 26.1015 147.423 26.3037C147.493 26.27 147.562 26.2532 147.678 26.2532C148.095 26.2532 148.234 26.5395 148.141 26.7585C148.211 26.708 148.327 26.6743 148.466 26.6743C148.859 26.6743 149.021 26.9607 148.929 27.1628C148.998 27.0786 149.137 27.0281 149.323 27.0281C149.716 27.0281 149.855 27.2807 149.786 27.4997C149.855 27.3818 149.994 27.2976 150.203 27.2976C150.828 27.2808 150.828 27.9714 150.226 27.9714Z" clip-rule="evenodd"/><path fill="#4F4188" fill-rule="evenodd" d="M159.35 24.6359C158.794 24.6528 158.563 24.08 159.049 23.8779C158.679 23.7263 158.702 23.3051 159.095 23.1703C158.679 23.0524 158.655 22.5807 159.072 22.4291C158.586 22.3449 158.493 21.8395 158.933 21.6711C158.447 21.6205 158.285 21.132 158.702 20.9298C158.146 21.0983 157.66 20.5424 158.1 20.2391C157.567 20.4076 157.081 19.8854 157.451 19.5822C156.919 19.9191 156.201 19.3463 156.641 18.9925C156.247 19.161 155.575 18.9757 155.761 18.5209C155.413 18.8072 154.672 18.5546 154.788 18.1671C154.51 18.6051 153.514 18.3356 153.723 17.8807C153.468 18.2513 152.634 18.0997 152.634 17.6786V17.6617C152.588 17.847 152.403 17.9986 152.078 17.9986C151.731 17.9986 151.546 17.8302 151.522 17.6449C151.499 18.066 150.642 18.1839 150.434 17.7965C150.434 18.0323 150.179 18.2176 149.855 18.2176C149.577 18.2176 149.392 18.0997 149.322 17.9481C149.369 18.1839 149.16 18.4366 148.767 18.4198C148.535 18.4198 148.373 18.3356 148.28 18.2176C148.396 18.4703 148.211 18.7904 147.748 18.7735C147.007 18.7735 147.007 17.9313 147.748 17.9313C147.979 17.9313 148.141 18.0155 148.234 18.1334C148.118 17.8807 148.303 17.5606 148.767 17.5606C149.044 17.5606 149.23 17.6786 149.299 17.8302C149.253 17.5943 149.461 17.3416 149.855 17.3585C150.087 17.3585 150.272 17.4596 150.365 17.5943C150.341 17.0721 151.43 17.0384 151.522 17.527C151.546 17.3248 151.731 17.1395 152.078 17.1395C152.472 17.1395 152.657 17.3585 152.634 17.5775C152.75 17.0553 153.954 17.19 153.746 17.746C154 17.3416 154.927 17.5606 154.811 17.9986C155.112 17.5438 156.108 17.847 155.853 18.3187C156.34 17.9481 157.15 18.4872 156.71 18.8746C157.15 18.6893 157.937 19.0262 157.474 19.4979C158.007 19.1442 158.748 19.7675 158.239 20.1212C158.841 19.9359 159.327 20.5929 158.771 20.8456C159.397 20.6603 159.86 21.351 159.258 21.5868C159.79 21.6374 159.906 22.1933 159.443 22.3617C159.929 22.446 160.022 22.9682 159.559 23.1198C159.952 23.2377 159.999 23.6757 159.628 23.8442C160.138 24.08 159.906 24.6528 159.35 24.6359Z" clip-rule="evenodd"/><path fill="#4F4188" fill-rule="evenodd" d="M161.157 24.2654C161.805 24.3497 161.689 25.1077 161.018 25.0909C160.995 25.0909 160.971 25.0909 160.948 25.0909C161.157 25.1414 161.342 25.2762 161.342 25.512C161.342 25.849 160.925 26.0006 160.601 25.9332C160.74 26.0006 160.832 26.1185 160.832 26.287C160.832 26.6407 160.416 26.7755 160.068 26.7081L160.045 26.6912C160.022 26.6912 159.999 26.6744 159.976 26.6744C159.999 26.6744 160.022 26.6913 160.045 26.7081C160.045 26.7081 160.068 26.7081 160.091 26.7081C160.184 26.7755 160.254 26.8766 160.277 27.0282C160.3 27.3314 159.813 27.5504 159.443 27.3988C159.883 27.7525 159.211 28.2916 158.679 28.0052C159.026 28.2579 158.748 28.7296 158.262 28.7128C158.077 28.7128 157.938 28.6622 157.845 28.5948C157.914 28.6622 157.961 28.7465 157.984 28.8644C158.007 29.2181 157.382 29.4203 157.034 29.1844C157.335 29.7067 156.363 29.9594 156.015 29.6056C156.062 29.8414 155.853 30.0941 155.413 30.0941C155.182 30.0941 154.996 30.0099 154.904 29.9088C154.927 30.1447 154.742 30.3974 154.302 30.3974C154.024 30.3974 153.862 30.2963 153.769 30.1784C153.746 30.7174 152.681 30.7343 152.565 30.2457C152.495 30.7343 151.499 30.7511 151.384 30.2963C151.314 30.4647 151.129 30.5995 150.805 30.5995C150.457 30.5995 150.272 30.4479 150.226 30.2626C150.156 30.4142 149.971 30.5153 149.67 30.5153C149.23 30.5153 149.021 30.2457 149.068 29.9931C148.998 30.111 148.836 30.2121 148.535 30.2457C148.165 30.2457 147.863 29.9762 147.979 29.7235C147.701 30.0604 146.914 29.892 146.937 29.4877C146.937 29.4371 146.937 29.3866 146.96 29.3529C146.868 29.454 146.706 29.5214 146.497 29.5214C145.964 29.5214 145.802 29.1002 146.011 28.8475C145.918 28.9318 145.779 28.9823 145.571 28.9823C144.992 28.9823 144.853 28.4938 145.154 28.2579C145.061 28.3085 144.922 28.3421 144.783 28.3421C144.204 28.3421 144.042 27.8536 144.343 27.6178C144.274 27.6515 144.158 27.6683 144.042 27.6683C143.463 27.6683 143.324 27.1629 143.649 26.9439C143.579 26.9608 143.486 26.9776 143.394 26.9776C142.745 26.9776 142.653 26.3375 143.139 26.169C142.815 26.2364 142.375 26.1016 142.398 25.7647C142.398 25.5457 142.56 25.4278 142.768 25.3773C142.722 25.3941 142.653 25.3941 142.606 25.3941C141.912 25.3941 141.842 24.7203 142.398 24.5855C142.074 24.6024 141.75 24.4676 141.75 24.1644C141.75 23.6084 142.907 23.6084 142.907 24.1644C142.907 24.3834 142.745 24.5013 142.537 24.5518C142.56 24.5518 142.583 24.5518 142.606 24.5518C143.301 24.5518 143.371 25.2257 142.815 25.3773C143.139 25.3099 143.556 25.4447 143.556 25.7816C143.556 25.9837 143.417 26.1016 143.232 26.169C143.278 26.1522 143.347 26.1522 143.417 26.1522C143.996 26.1522 144.135 26.6576 143.811 26.8766C143.88 26.8597 143.973 26.8429 144.065 26.8429C144.621 26.8429 144.76 27.3146 144.482 27.5504C144.575 27.5167 144.668 27.4999 144.806 27.4999C145.409 27.4999 145.548 27.9884 145.247 28.2411C145.339 28.1905 145.455 28.1568 145.594 28.1568C146.127 28.1568 146.289 28.578 146.08 28.8307C146.173 28.7465 146.312 28.6959 146.52 28.6959C147.007 28.6959 147.192 29.016 147.076 29.2687C147.4 28.9486 148.28 29.1339 148.095 29.6224C148.628 29.1676 149.207 29.6056 149.137 29.9594C149.207 29.8077 149.392 29.673 149.693 29.6898C150.04 29.6898 150.226 29.8414 150.272 30.0267C150.341 29.8751 150.527 29.7741 150.828 29.7741C151.152 29.7741 151.36 29.9257 151.407 30.0941C151.546 29.673 152.495 29.6898 152.588 30.1447C152.657 29.7067 153.468 29.6561 153.723 29.9931C153.746 29.7741 153.931 29.5719 154.325 29.5888C154.556 29.5888 154.742 29.673 154.834 29.7741C154.811 29.5382 154.996 29.2855 155.436 29.2855C155.668 29.2855 155.83 29.3529 155.946 29.4708C155.946 29.454 155.946 29.4371 155.946 29.4203C155.923 29.0665 156.548 28.8644 156.895 29.1002C156.594 28.5948 157.498 28.359 157.845 28.6285C157.498 28.3253 157.914 27.702 158.609 28.0052C158.146 27.6852 158.725 27.1124 159.281 27.3482C158.864 26.9271 159.443 26.607 159.883 26.6744C159.767 26.607 159.698 26.4891 159.698 26.3543C159.698 26.0174 160.115 25.8658 160.439 25.9332C160.3 25.8658 160.207 25.7479 160.207 25.5794C160.207 25.2593 160.555 25.1077 160.902 25.1414C160.416 25.0235 160.392 24.4171 160.971 24.3497C160.392 24.2654 160.392 23.6421 160.948 23.5579C160.369 23.4568 160.416 22.8167 161.018 22.7493C160.462 22.6988 160.369 22.1092 160.879 21.9575C160.392 21.9407 160.184 21.4353 160.578 21.2332C159.999 21.25 159.767 20.6604 160.277 20.4583C159.582 20.6436 159.281 20.0034 159.675 19.7507C159.605 19.7676 159.536 19.7844 159.466 19.7844C158.98 19.8013 158.702 19.3464 159.026 19.0937C158.54 19.3127 157.938 18.8747 158.262 18.521C157.891 18.6894 157.382 18.4704 157.405 18.1672C157.405 18.083 157.428 18.0324 157.474 17.9819C157.382 18.0324 157.266 18.0661 157.081 18.083C156.687 18.083 156.386 17.7797 156.548 17.5102C156.224 17.8134 155.506 17.6281 155.529 17.2407C155.529 17.1901 155.552 17.1564 155.552 17.1059C155.274 17.4091 154.464 17.3418 154.487 16.8869V16.8701C154.394 17.0048 154.209 17.1059 153.954 17.1059C153.584 17.1059 153.375 16.9038 153.352 16.7016C153.167 17.0891 152.287 17.0554 152.194 16.6174C152.125 16.7858 151.939 16.9206 151.615 16.9206C151.314 16.9206 151.129 16.8027 151.059 16.6511C151.013 16.8364 150.805 16.988 150.48 16.988C150.203 16.988 150.017 16.8869 149.948 16.7521C149.925 16.9543 149.716 17.1396 149.346 17.1396C149.021 17.1396 148.836 17.0048 148.767 16.8364C148.767 16.8701 148.767 16.8869 148.79 16.9206C148.813 17.3418 147.979 17.4934 147.725 17.1228C147.887 17.3923 147.586 17.7124 147.192 17.7124C147.03 17.7124 146.914 17.6787 146.821 17.6281C146.96 17.8808 146.775 18.2514 146.266 18.2514C146.15 18.2514 146.034 18.2346 145.964 18.2009C145.988 18.2514 146.011 18.3188 146.011 18.3862C146.011 18.9758 144.806 18.9758 144.806 18.3862C144.806 17.9819 145.362 17.864 145.733 18.0156C145.594 17.7629 145.779 17.3923 146.289 17.3923C146.451 17.3923 146.59 17.426 146.682 17.4934C146.543 17.2407 146.729 16.8869 147.192 16.9038C147.4 16.9038 147.586 16.988 147.678 17.1228C147.377 16.5331 148.605 16.331 148.767 16.8532C148.697 16.6005 148.882 16.3142 149.346 16.3142C149.624 16.3142 149.809 16.4152 149.878 16.55C149.901 16.3478 150.11 16.1625 150.48 16.1625C150.782 16.1625 150.967 16.2805 151.036 16.4321C151.083 16.2468 151.291 16.0952 151.615 16.0952C151.963 16.0952 152.171 16.2636 152.194 16.4489C152.356 16.0109 153.352 16.0615 153.375 16.5668C153.445 16.4152 153.63 16.2805 153.931 16.2805C154.348 16.2805 154.556 16.5163 154.533 16.7353C154.765 16.3984 155.645 16.4658 155.622 16.9375C155.622 16.988 155.622 17.0217 155.599 17.0554C155.9 16.6848 156.895 16.9038 156.618 17.4428C157.22 17.0048 157.775 17.5439 157.59 17.8977C158.007 17.6618 158.818 17.9482 158.447 18.4367C158.98 18.184 159.605 18.74 159.165 19.06C159.86 18.8074 160.23 19.4812 159.837 19.7507C159.906 19.7339 159.976 19.717 160.045 19.717C160.624 19.7002 160.832 20.2898 160.346 20.4919C160.925 20.3066 161.435 20.9299 160.925 21.1995C161.55 21.1826 161.736 21.8396 161.157 22.0081C161.458 22.0249 161.666 22.2102 161.666 22.4124C161.666 22.6145 161.458 22.783 161.18 22.8167C161.782 22.8672 161.828 23.5242 161.249 23.6253C161.759 23.5579 161.736 24.1812 161.157 24.2654Z" clip-rule="evenodd"/><path fill="#4F4188" fill-rule="evenodd" d="M156.106 32.486C156.084 32.4355 156.061 32.4018 156.039 32.3513C156.061 32.385 156.084 32.4355 156.106 32.486Z" clip-rule="evenodd"/><path fill="#4F4188" fill-rule="evenodd" d="M164.861 24.888C164.792 24.888 164.723 24.8715 164.654 24.855C164.723 24.8715 164.792 24.8715 164.861 24.888Z" clip-rule="evenodd"/><path fill="#4F4188" fill-rule="evenodd" d="M164.654 24.8718C164.723 24.8718 164.792 24.8718 164.861 24.9049C164.792 24.8884 164.723 24.8884 164.654 24.8718Z" clip-rule="evenodd"/><path fill="#4F4188" fill-rule="evenodd" d="M165.001 23.8779C164.932 23.8779 164.908 23.8779 164.862 23.8779C164.908 23.861 164.955 23.8779 165.001 23.8779Z" clip-rule="evenodd"/><path fill="#4F4188" fill-rule="evenodd" d="M165.001 23.8779C164.932 23.8779 164.908 23.8779 164.862 23.8779C164.908 23.861 164.955 23.8779 165.001 23.8779Z" clip-rule="evenodd"/><path fill="#4F4188" fill-rule="evenodd" d="M147.653 32.2166C147.653 32.2671 147.631 32.3008 147.609 32.3344C147.631 32.3008 147.631 32.2671 147.653 32.2166Z" clip-rule="evenodd"/><path fill="#4F4188" fill-rule="evenodd" d="M154.694 32.739C154.672 32.7053 154.672 32.6547 154.672 32.621C154.672 32.6547 154.694 32.7053 154.694 32.739Z" clip-rule="evenodd"/><path fill="#4F4188" fill-rule="evenodd" d="M154.672 32.621C154.694 32.6547 154.694 32.7053 154.694 32.739C154.672 32.7053 154.672 32.6716 154.672 32.621Z" clip-rule="evenodd"/><path fill="#4F4188" fill-rule="evenodd" d="M156.106 32.486C156.084 32.4355 156.061 32.4018 156.039 32.3513C156.061 32.385 156.084 32.4355 156.106 32.486Z" clip-rule="evenodd"/><path fill="#4F4188" fill-rule="evenodd" d="M165.001 23.8779C165.904 23.8611 165.904 22.884 165.048 22.8335C165.372 22.7998 165.65 22.6313 165.65 22.3281C165.65 22.008 165.349 21.8396 165.024 21.8227C165.719 21.6711 165.673 20.8288 164.862 20.7951C165.488 20.593 165.372 19.8012 164.561 19.8012C164.538 19.8012 164.515 19.8012 164.469 19.8012C164.816 19.5148 164.677 18.9589 164.029 18.9252C164.26 18.5715 163.89 17.9987 163.149 18.184C163.311 18.0829 163.403 17.9482 163.403 17.7966C163.403 17.3586 162.801 17.207 162.384 17.3249C162.732 16.9543 162.222 16.2636 161.412 16.5837C161.759 16.2467 161.342 15.7582 160.786 15.7751C160.578 15.7919 160.439 15.8424 160.323 15.9098C160.555 15.5897 160.323 15.1181 159.675 15.1349C159.42 15.1349 159.235 15.236 159.119 15.3539C159.304 15.0338 159.049 14.5958 158.447 14.6127C158.146 14.6295 157.961 14.7306 157.868 14.8654C157.915 14.798 157.915 14.7306 157.915 14.6464C157.915 14.1915 157.081 13.9725 156.687 14.3095C156.872 13.7199 155.599 13.484 155.321 14.0399C155.46 13.4166 154.302 13.2819 153.978 13.7199V13.703C153.978 13.0797 152.796 13.0292 152.588 13.5346C152.542 13.2987 152.31 13.0966 151.893 13.0966C151.5 13.0966 151.268 13.2819 151.199 13.5009C151.129 13.2987 150.897 13.1302 150.504 13.1302C150.064 13.1302 149.832 13.3492 149.786 13.6019C149.601 13.0292 148.28 13.0966 148.304 13.7535C148.188 13.5851 147.933 13.4672 147.655 13.4672C147.076 13.4672 146.845 13.8378 146.937 14.141C146.821 14.0062 146.613 13.9052 146.312 13.9052C145.733 13.9052 145.501 14.2758 145.594 14.579C145.478 14.4611 145.293 14.3768 145.038 14.3768C144.413 14.3768 144.205 14.8317 144.413 15.1349C144.042 14.798 143.139 14.9159 143.116 15.455C143.116 15.5729 143.162 15.674 143.232 15.7414C142.815 15.5055 142.051 15.6403 142.028 16.1457C142.028 16.2804 142.074 16.3815 142.167 16.4657C141.75 16.2299 140.985 16.3647 140.985 16.87C140.985 17.0216 141.055 17.1396 141.171 17.2238C141.078 17.1901 140.962 17.1564 140.823 17.1564C140.036 17.1564 139.897 17.8808 140.406 18.1335C140.337 18.1166 140.244 18.0998 140.152 18.0998C139.202 18.0998 139.202 19.1611 140.152 19.1611C140.939 19.1611 141.078 18.4367 140.569 18.184C140.638 18.2009 140.731 18.2177 140.823 18.2177C141.541 18.2177 141.727 17.6113 141.356 17.3249C141.773 17.4933 142.444 17.3417 142.468 16.8869C142.468 16.7521 142.421 16.651 142.329 16.5668C142.746 16.8027 143.51 16.6679 143.51 16.1625C143.51 16.0446 143.463 15.9604 143.394 15.8761C143.811 16.112 144.575 15.9772 144.575 15.4718C144.575 15.3876 144.552 15.3202 144.506 15.2528C144.621 15.3539 144.807 15.4213 145.038 15.4213C145.571 15.4213 145.802 15.0675 145.733 14.7811C145.849 14.8991 146.057 15.0001 146.335 15.0001C146.914 15.0001 147.146 14.6295 147.053 14.3263C147.169 14.4611 147.377 14.5453 147.655 14.5621C148.072 14.5621 148.419 14.3095 148.396 14.0062C148.721 14.4779 149.716 14.3095 149.786 13.8209C149.855 14.0231 150.087 14.2084 150.481 14.2084C150.897 14.2084 151.129 14.0062 151.175 13.7872C151.245 13.9894 151.476 14.141 151.847 14.141C152.218 14.141 152.449 13.9725 152.519 13.7872C152.611 14.2926 153.584 14.36 153.862 13.9557V13.9894C153.862 14.5453 154.997 14.6632 155.251 14.1578C155.089 14.6464 156.039 14.9496 156.479 14.579C156.317 15.2191 157.521 15.3539 157.822 14.8822C157.637 15.2023 157.868 15.6571 158.494 15.6403C158.748 15.6234 158.934 15.5392 159.026 15.4213C158.841 15.7414 159.096 16.1794 159.698 16.1625C159.883 16.1625 160.045 16.0951 160.161 16.0277C159.883 16.4152 160.393 17.0385 161.157 16.7184C160.809 17.0553 161.226 17.5439 161.782 17.527C161.875 17.527 161.967 17.5102 162.037 17.4765C161.967 17.5607 161.921 17.6449 161.921 17.7629C161.921 18.1166 162.454 18.3862 162.894 18.2514C162.384 18.5209 162.662 19.1442 163.264 19.1611C163.056 19.4643 163.264 19.936 163.89 19.936C163.913 19.936 163.936 19.936 163.982 19.936C163.635 20.2224 163.797 20.7951 164.469 20.812C163.866 20.9973 163.959 21.7553 164.677 21.8059C164.399 21.8564 164.168 22.0249 164.168 22.2944C164.168 22.6145 164.492 22.7829 164.816 22.7998C164.029 22.884 164.029 23.7432 164.816 23.8274C164.469 23.8274 164.121 23.9958 164.121 24.3328C164.121 24.6023 164.353 24.7708 164.608 24.8213C164.237 24.8213 163.866 24.9898 163.866 25.3267C163.866 25.5794 164.075 25.7478 164.33 25.8152C163.936 25.7815 163.519 25.95 163.519 26.3206C163.519 26.5564 163.681 26.708 163.913 26.7754C163.519 26.7249 163.056 26.8933 163.056 27.2808C163.056 27.4998 163.195 27.6346 163.38 27.7188C162.963 27.584 162.361 27.7525 162.361 28.1905C162.361 28.3421 162.431 28.4432 162.546 28.5274C161.991 28.3252 161.064 28.7801 161.666 29.336C160.972 29.0496 160.254 29.7571 160.833 30.1446C160.416 29.8245 159.582 30.0604 159.605 30.5152C159.628 30.65 159.675 30.751 159.744 30.8353C159.397 30.4984 158.447 30.5994 158.447 31.1553C158.447 31.2396 158.47 31.3238 158.517 31.3743C158.401 31.2564 158.216 31.189 157.961 31.189C157.359 31.189 157.15 31.6102 157.312 31.9303C157.197 31.7786 156.988 31.6607 156.687 31.6607C156.155 31.6607 155.923 31.9976 155.992 32.284C155.877 32.1156 155.668 31.9976 155.344 31.9976C154.881 31.9976 154.649 32.2503 154.626 32.503C154.371 32.0145 153.213 32.065 153.167 32.6715C152.982 32.1492 151.801 32.1661 151.754 32.7894C151.708 32.1492 150.481 32.1492 150.342 32.7052C150.342 32.4356 150.11 32.1829 149.624 32.1661C149.253 32.1661 149.022 32.3346 148.929 32.5367C149.045 32.2335 148.813 31.8629 148.234 31.8629C147.91 31.8629 147.702 31.9808 147.586 32.1493C147.609 32.1156 147.609 32.065 147.609 32.0313C147.632 31.4754 146.52 31.307 146.219 31.8123C146.428 31.4754 146.057 31.088 145.548 31.088C145.27 31.088 145.061 31.189 144.946 31.307C145.154 31.0037 144.946 30.532 144.32 30.5152C144.019 30.5152 143.811 30.6163 143.718 30.751C143.95 30.431 143.741 29.9424 143.093 29.9424C142.884 29.9424 142.722 29.993 142.607 30.0772C142.861 29.774 142.676 29.2686 142.028 29.2686C141.889 29.2686 141.773 29.2855 141.68 29.3191C141.796 29.2349 141.865 29.117 141.865 28.9654C141.865 28.4937 141.194 28.3589 140.777 28.5274C140.893 28.4432 140.985 28.3252 140.985 28.1568C140.985 27.4829 139.55 27.4829 139.55 28.1568C139.55 28.6285 140.221 28.7632 140.638 28.5948C140.522 28.679 140.43 28.7969 140.43 28.9654C140.43 29.4202 141.078 29.5718 141.495 29.4202C141.124 29.7066 141.31 30.313 142.004 30.313C142.213 30.313 142.352 30.2625 142.468 30.1951C142.19 30.5152 142.398 31.0374 143.07 31.0374C143.371 31.0374 143.579 30.9363 143.695 30.8016C143.487 31.1217 143.695 31.5933 144.32 31.5933C144.598 31.5933 144.783 31.5091 144.899 31.3743C144.714 31.6944 144.922 32.1324 145.548 32.1493C145.849 32.1493 146.08 32.0145 146.196 31.846C145.849 32.5367 147.192 32.8062 147.516 32.284C147.516 32.2503 147.539 32.1998 147.563 32.1661C147.563 32.2166 147.539 32.2503 147.516 32.284C147.424 32.5872 147.655 32.941 148.211 32.941C148.582 32.941 148.813 32.7725 148.906 32.5704C148.79 32.8736 149.022 33.2442 149.601 33.2442C150.017 33.2442 150.249 33.0421 150.295 32.8231C150.295 33.4969 151.685 33.5138 151.731 32.8399C151.777 33.4969 153.121 33.4801 153.167 32.8568C153.352 33.4127 154.603 33.379 154.649 32.7557C154.742 32.941 154.973 33.0926 155.321 33.0926C155.877 33.0926 156.108 32.7389 156.039 32.4356C156.131 32.5872 156.34 32.722 156.664 32.722C157.266 32.722 157.475 32.3009 157.312 31.9808C157.428 32.1324 157.614 32.2503 157.938 32.2503C158.563 32.2503 158.771 31.7955 158.563 31.4923C158.934 31.8292 159.86 31.7281 159.86 31.1722C159.86 31.0543 159.814 30.9532 159.744 30.869C160.231 31.3406 161.551 30.8184 160.833 30.1783C161.458 30.65 162.5 29.9424 161.875 29.4539C162.338 29.6392 162.94 29.3697 162.917 28.9991C162.894 28.8475 162.824 28.7295 162.732 28.6453C163.149 28.8138 163.82 28.6621 163.82 28.2073C163.82 27.9883 163.681 27.8536 163.496 27.7693C163.913 27.8872 164.515 27.7356 164.515 27.2976C164.515 27.0618 164.353 26.9102 164.144 26.8428C164.538 26.8933 165.001 26.7249 165.001 26.3374C165.001 26.0847 164.793 25.9163 164.538 25.8489C164.932 25.8826 165.349 25.7141 165.349 25.3435C165.349 25.074 165.117 24.9224 164.862 24.855C165.233 24.855 165.603 24.6865 165.603 24.3496C165.603 24.0801 165.325 23.9116 165.001 23.8779ZM163.959 26.8259C164.029 26.8259 164.098 26.8428 164.144 26.8765C164.075 26.8596 164.005 26.8428 163.959 26.8259ZM164.376 25.8657C164.422 25.8657 164.492 25.8826 164.538 25.8994C164.492 25.8826 164.422 25.8826 164.376 25.8657Z" clip-rule="evenodd"/><path fill="#4F4188" fill-rule="evenodd" d="M167.201 24.5685C167.896 24.8549 167.549 25.6972 166.738 25.6804C166.715 25.6804 166.692 25.6804 166.669 25.6804C167.039 25.7646 167.294 26.0173 167.294 26.3037C167.294 26.7248 166.715 27.0617 166.159 26.927C167.016 27.1797 166.738 28.2073 165.789 28.1736C165.719 28.1736 165.626 28.1567 165.557 28.1567C165.719 28.2578 165.835 28.4094 165.858 28.6284C165.858 28.999 165.372 29.3191 164.885 29.218C165.325 29.5886 164.909 30.2119 164.237 30.1951C164.098 30.1951 163.982 30.1782 163.866 30.1445C163.982 30.2456 164.075 30.3804 164.075 30.5488C164.075 31.0879 163.287 31.2564 162.801 31.0711C162.894 31.1721 162.963 31.2901 162.986 31.4585C163.01 31.9302 162.245 32.2503 161.713 31.9807C162.06 32.5704 160.948 33.0926 160.346 32.6377C160.67 33.379 159.397 33.6822 158.887 33.2442C159.096 33.6148 158.818 34.1202 158.1 34.1202C157.752 34.1202 157.475 33.9686 157.336 33.7664C157.567 34.575 155.946 34.7603 155.691 34.0528C155.761 34.3897 155.506 34.7772 154.881 34.7772C154.418 34.7772 154.163 34.575 154.07 34.3223C154.07 34.356 154.07 34.3897 154.07 34.4066C154.093 35.1141 152.657 35.2825 152.38 34.6256C152.241 34.8614 151.94 35.013 151.569 35.013C151.106 35.013 150.735 34.7603 150.689 34.4234C150.643 34.6929 150.365 34.9288 149.878 34.9288C149.323 34.9288 149.045 34.6087 149.045 34.3055C148.952 34.5413 148.697 34.7435 148.234 34.7435C147.609 34.7435 147.354 34.356 147.424 34.0191C147.308 34.2381 147.03 34.4234 146.59 34.4234C145.895 34.4234 145.594 33.9686 145.71 33.5979C145.339 34.0528 144.158 33.9349 144.158 33.2779C144.158 33.2105 144.181 33.16 144.181 33.1094C143.718 33.4463 142.722 33.3116 142.722 32.6883C142.722 32.5535 142.769 32.4356 142.861 32.3345C142.398 32.6546 141.425 32.5198 141.425 31.9134C141.425 31.1216 143.093 31.1216 143.093 31.9134C143.093 32.0481 143.047 32.166 142.954 32.2503C143.417 31.9302 144.39 32.065 144.39 32.6714C144.39 32.7388 144.39 32.7893 144.367 32.8399C144.83 32.503 145.826 32.6377 145.826 33.261C145.826 33.3116 145.826 33.3453 145.802 33.379C145.941 33.2105 146.196 33.0757 146.567 33.0757C147.238 33.0757 147.539 33.4969 147.447 33.8675C147.563 33.6653 147.817 33.4969 148.211 33.4969C148.767 33.4969 149.045 33.8001 149.045 34.1202C149.137 33.8843 149.392 33.6822 149.855 33.6822C150.365 33.6822 150.643 33.9517 150.689 34.2212C150.805 33.6148 152.102 33.4969 152.38 34.1202C152.681 33.5474 153.862 33.6485 154.047 34.2044C153.978 33.8675 154.255 33.4969 154.858 33.4969C155.298 33.4969 155.576 33.699 155.645 33.9349C155.645 33.9012 155.622 33.8506 155.622 33.8169C155.599 33.16 156.896 32.9578 157.243 33.5474C157.104 33.1768 157.544 32.8062 158.077 32.8062C158.355 32.8062 158.586 32.8904 158.725 33.0083C158.679 32.941 158.679 32.8567 158.656 32.7725C158.632 32.2503 159.582 31.9471 160.092 32.3177C159.79 31.7954 160.67 31.2732 161.319 31.5933C161.018 30.9363 161.967 30.6162 162.546 30.8521C162.454 30.751 162.384 30.6331 162.384 30.4815C162.384 29.9592 163.102 29.7739 163.612 29.9424C163.148 29.5718 163.45 28.7969 164.376 28.9316C163.797 28.342 164.607 27.8872 165.233 27.9714C164.584 27.6008 164.955 26.6237 166.02 26.8259C165.163 26.5732 165.441 25.5625 166.391 25.5793C166.414 25.5793 166.414 25.5793 166.437 25.5793C165.765 25.4108 165.696 24.5854 166.483 24.4338C165.997 24.2316 165.974 23.6589 166.46 23.4567C165.765 22.9513 166.298 22.4628 166.9 22.3954C166.437 22.4123 165.974 22.1933 165.974 21.7553C165.974 21.4352 166.229 21.2331 166.553 21.1657C165.534 21.1657 165.418 20.1886 166.159 19.9359H166.136C165.325 19.9528 164.978 19.1105 165.696 18.8241C164.862 19.0768 164.167 18.2008 164.862 17.7965C164.098 18.0323 163.38 17.2911 163.936 16.8531C162.963 17.089 162.523 16.2635 163.01 15.8761C162.894 15.9266 162.755 15.9603 162.593 15.9603C161.805 15.9603 161.597 15.337 161.921 14.9832C161.782 15.0843 161.597 15.1517 161.342 15.1517C160.624 15.1517 160.369 14.6295 160.601 14.2589C160.091 14.7137 158.795 14.3936 159.142 13.6356C158.656 14.2083 157.336 13.7535 157.66 13.1133C156.872 13.7872 156.016 13.1639 156.108 12.6416C155.992 12.8606 155.761 13.0291 155.344 13.0291C154.765 13.0291 154.487 12.6922 154.533 12.3553C154.279 12.8943 153.051 12.8943 152.935 12.2373C152.704 12.8943 151.314 12.7596 151.314 12.0857C151.314 12.389 151.036 12.6753 150.504 12.6753C150.064 12.6753 149.809 12.4732 149.716 12.2373C149.693 12.9617 148.257 13.0123 148.072 12.3721C148.072 12.4058 148.095 12.4395 148.095 12.49C148.118 13.0965 146.937 13.3323 146.52 12.8101C146.706 13.3829 145.594 13.7535 145.084 13.3323C145.27 13.7029 144.807 14.1072 144.274 14.1072C143.996 14.1072 143.788 14.023 143.625 13.9051C143.88 14.2589 143.625 14.7979 142.908 14.7979C142.676 14.7979 142.491 14.7474 142.352 14.6463C142.421 14.7305 142.444 14.8316 142.468 14.9495C142.491 15.4718 141.541 15.7581 141.055 15.3875C141.796 16.0445 140.707 16.5836 140.059 16.3477C140.175 16.4488 140.267 16.5836 140.267 16.752C140.267 17.2574 139.573 17.4427 139.086 17.2911C139.688 17.628 139.341 18.5546 138.345 18.3524C138.971 18.6725 138.6 19.4474 137.836 19.4305C137.789 19.4305 137.743 19.4305 137.697 19.4305C138.392 19.6664 138.276 20.5761 137.326 20.5929C136.238 20.5929 136.238 19.38 137.326 19.38C137.373 19.38 137.419 19.38 137.442 19.38C136.655 19.1105 136.979 18.0492 138.044 18.2513C137.419 17.9313 137.789 17.1563 138.554 17.1732C138.693 17.1732 138.808 17.19 138.901 17.2237C138.716 17.1227 138.6 16.971 138.6 16.752C138.6 16.213 139.364 16.0445 139.851 16.2298C139.735 16.1287 139.642 15.994 139.619 15.8087C139.596 15.2865 140.545 15.0001 141.032 15.3707C140.244 14.6463 141.564 14.0904 142.19 14.4778C141.935 14.1241 142.166 13.5682 142.908 13.5682C143.185 13.5682 143.394 13.6524 143.51 13.7535C143.278 13.3829 143.51 12.8438 144.251 12.8438C144.482 12.8438 144.714 12.9112 144.853 13.0291C144.552 12.3721 145.918 11.951 146.381 12.5574C146.196 11.7488 147.84 11.6309 148.049 12.3216C148.049 12.2879 148.049 12.2542 148.049 12.2205C148.049 11.4961 149.462 11.4287 149.67 12.052C149.67 11.7488 149.948 11.4456 150.481 11.4456C151.013 11.4456 151.291 11.7488 151.291 12.0352C151.291 11.6983 151.662 11.4287 152.125 11.4287C152.542 11.4287 152.889 11.6646 152.935 11.951C153.167 11.294 154.58 11.4287 154.557 12.1194C154.557 12.1363 154.557 12.1531 154.557 12.17C154.649 11.951 154.904 11.7825 155.321 11.7657C155.923 11.7657 156.201 12.1531 156.131 12.49C156.224 12.3047 156.479 12.1531 156.942 12.1194C157.498 12.1194 157.938 12.5237 157.729 12.9112C158.239 12.2879 159.605 12.8101 159.211 13.4671C159.651 12.9786 160.786 13.2481 160.74 13.8377C160.74 13.9388 160.694 14.0399 160.647 14.1072C160.786 13.9893 160.995 13.9051 161.273 13.9051C162.06 13.9051 162.268 14.5284 161.944 14.8822C162.083 14.7811 162.268 14.7137 162.523 14.7137C163.334 14.7137 163.542 15.3875 163.148 15.7413C163.264 15.6908 163.403 15.6571 163.565 15.6571C164.26 15.6402 164.654 16.2804 164.214 16.6341C165.048 16.3646 165.765 17.2574 165.048 17.6617C165.951 17.3753 166.622 18.3861 165.765 18.7399C166.854 18.4703 167.271 19.5822 166.414 19.8517C166.437 19.8517 166.437 19.8517 166.46 19.8517C167.502 19.8517 167.618 20.8961 166.761 21.0983C167.201 21.0983 167.641 21.3173 167.664 21.7384C167.664 22.109 167.317 22.3112 166.947 22.3617C167.317 22.3617 167.664 22.5302 167.734 22.9682C167.734 23.1703 167.595 23.3388 167.363 23.4567C167.989 23.8105 167.827 24.4506 167.201 24.5685Z" clip-rule="evenodd"/><path fill="#4F4188" fill-rule="evenodd" d="M134.339 21.6374C133.088 21.6374 133.088 23.0356 134.339 23.0356C135.589 23.0188 135.589 21.6374 134.339 21.6374Z" clip-rule="evenodd"/><path fill="#4F4188" fill-rule="evenodd" d="M134.64 20.2561C133.389 20.2561 133.389 21.6543 134.64 21.6543C135.89 21.6543 135.89 20.2561 134.64 20.2561Z" clip-rule="evenodd"/><path fill="#4F4188" fill-rule="evenodd" d="M134.987 18.9083C133.736 18.9083 133.736 20.3065 134.987 20.3065C136.261 20.2897 136.261 18.9083 134.987 18.9083Z" clip-rule="evenodd"/><path fill="#4F4188" fill-rule="evenodd" d="M135.612 17.5777C134.362 17.5777 134.362 18.9759 135.612 18.9759C136.863 18.9759 136.863 17.5777 135.612 17.5777Z" clip-rule="evenodd"/><path fill="#4F4188" fill-rule="evenodd" d="M136.608 16.3646C135.358 16.3646 135.358 17.7628 136.608 17.7628C137.859 17.7628 137.859 16.3646 136.608 16.3646Z" clip-rule="evenodd"/><path fill="#4F4188" fill-rule="evenodd" d="M137.558 15.1518C136.307 15.1518 136.307 16.55 137.558 16.55C138.808 16.55 138.808 15.1518 137.558 15.1518Z" clip-rule="evenodd"/><path fill="#4F4188" fill-rule="evenodd" d="M138.762 14.0736C137.511 14.0736 137.511 15.4718 138.762 15.4718C140.036 15.4718 140.036 14.0736 138.762 14.0736Z" clip-rule="evenodd"/><path fill="#4F4188" fill-rule="evenodd" d="M143.116 11.4793C141.865 11.4793 141.865 12.8775 143.116 12.8775C144.367 12.8775 144.367 11.4793 143.116 11.4793Z" clip-rule="evenodd"/><path fill="#4F4188" fill-rule="evenodd" d="M141.495 12.2374C140.244 12.2374 140.244 13.6356 141.495 13.6356C142.769 13.6356 142.769 12.2543 141.495 12.2374Z" clip-rule="evenodd"/><path fill="#4F4188" fill-rule="evenodd" d="M140.059 13.1134C138.808 13.1134 138.808 14.5116 140.059 14.5116C141.31 14.5116 141.31 13.1134 140.059 13.1134Z" clip-rule="evenodd"/><path fill="#4F4188" fill-rule="evenodd" d="M144.807 10.8898C143.556 10.8898 143.556 12.288 144.807 12.288C146.057 12.288 146.057 10.8898 144.807 10.8898Z" clip-rule="evenodd"/><path fill="#4F4188" fill-rule="evenodd" d="M146.613 10.4517C145.362 10.4517 145.362 11.8499 146.613 11.8499C147.863 11.8331 147.863 10.4517 146.613 10.4517Z" clip-rule="evenodd"/><path fill="#4F4188" fill-rule="evenodd" d="M148.419 10.0475C147.169 10.0475 147.169 11.4457 148.419 11.4457C149.67 11.4457 149.67 10.0475 148.419 10.0475Z" clip-rule="evenodd"/><path fill="#4F4188" fill-rule="evenodd" d="M150.365 9.8952C149.114 9.8952 149.114 11.2934 150.365 11.2934C151.615 11.2934 151.615 9.8952 150.365 9.8952Z" clip-rule="evenodd"/><path fill="#4F4188" fill-rule="evenodd" d="M152.264 9.86215C151.013 9.86215 151.013 11.2604 152.264 11.2604C153.537 11.2604 153.537 9.879 152.264 9.86215Z" clip-rule="evenodd"/><path fill="#4F4188" fill-rule="evenodd" d="M154.07 9.8952C152.82 9.8952 152.82 11.2934 154.07 11.2934C155.344 11.2934 155.344 9.8952 154.07 9.8952Z" clip-rule="evenodd"/><path fill="#4F4188" fill-rule="evenodd" d="M155.946 10.2159C154.695 10.2159 154.695 11.6141 155.946 11.6141C157.22 11.5972 157.22 10.2159 155.946 10.2159Z" clip-rule="evenodd"/><path fill="#4F4188" fill-rule="evenodd" d="M157.729 10.6201C156.479 10.6201 156.479 12.0183 157.729 12.0183C158.98 12.0183 158.98 10.637 157.729 10.6201Z" clip-rule="evenodd"/><path fill="#4F4188" fill-rule="evenodd" d="M159.42 11.2266C158.169 11.2266 158.169 12.6248 159.42 12.6248C160.693 12.6248 160.693 11.2266 159.42 11.2266Z" clip-rule="evenodd"/><path fill="#4F4188" fill-rule="evenodd" d="M161.064 11.9174C159.814 11.9174 159.814 13.3156 161.064 13.3156C162.315 13.2988 162.315 11.9174 161.064 11.9174Z" clip-rule="evenodd"/><path fill="#4F4188" fill-rule="evenodd" d="M162.639 12.6586C161.388 12.6586 161.388 14.0568 162.639 14.0568C163.89 14.0568 163.89 12.6586 162.639 12.6586Z" clip-rule="evenodd"/><path fill="#4F4188" fill-rule="evenodd" d="M164.005 13.602C162.755 13.602 162.755 15.0002 164.005 15.0002C165.279 15.0002 165.279 13.602 164.005 13.602Z" clip-rule="evenodd"/><path fill="#4F4188" fill-rule="evenodd" d="M165.233 14.6633C163.982 14.6633 163.982 16.0615 165.233 16.0615C166.483 16.0615 166.483 14.6633 165.233 14.6633Z" clip-rule="evenodd"/><path fill="#4F4188" fill-rule="evenodd" d="M166.344 15.7582C165.094 15.7582 165.094 17.1564 166.344 17.1564C167.595 17.1396 167.595 15.7582 166.344 15.7582Z" clip-rule="evenodd"/><path fill="#4F4188" fill-rule="evenodd" d="M167.294 16.9374C166.043 16.9374 166.043 18.3356 167.294 18.3356C168.568 18.3356 168.568 16.9374 167.294 16.9374Z" clip-rule="evenodd"/><path fill="#4F4188" fill-rule="evenodd" d="M168.035 18.2008C166.784 18.2008 166.784 19.599 168.035 19.599C169.285 19.599 169.285 18.2008 168.035 18.2008Z" clip-rule="evenodd"/><path fill="#4F4188" fill-rule="evenodd" d="M168.614 19.5149C167.363 19.5149 167.363 20.9131 168.614 20.9131C169.888 20.9131 169.888 19.5149 168.614 19.5149Z" clip-rule="evenodd"/><path fill="#4F4188" fill-rule="evenodd" d="M168.845 20.8962C167.595 20.8962 167.595 22.2944 168.845 22.2944C170.119 22.2944 170.119 20.8962 168.845 20.8962Z" clip-rule="evenodd"/><path fill="#4F4188" fill-rule="evenodd" d="M169.077 22.2944C167.827 22.2944 167.827 23.6926 169.077 23.6926C170.351 23.6757 170.351 22.2944 169.077 22.2944Z" clip-rule="evenodd"/><path fill="#4F4188" fill-rule="evenodd" d="M169.077 23.6759C167.827 23.6759 167.827 25.0741 169.077 25.0741C170.351 25.0741 170.351 23.6927 169.077 23.6759Z" clip-rule="evenodd"/><path fill="#4F4188" fill-rule="evenodd" d="M168.822 25.0402C167.572 25.0402 167.572 26.4384 168.822 26.4384C170.096 26.4384 170.096 25.0402 168.822 25.0402Z" clip-rule="evenodd"/><path fill="#4F4188" fill-rule="evenodd" d="M168.359 26.3879C167.109 26.3879 167.109 27.7861 168.359 27.7861C169.61 27.7861 169.61 26.4048 168.359 26.3879Z" clip-rule="evenodd"/><path fill="#4F4188" fill-rule="evenodd" d="M167.641 27.7019C166.391 27.7019 166.391 29.1001 167.641 29.1001C168.892 29.0833 168.892 27.7019 167.641 27.7019Z" clip-rule="evenodd"/><path fill="#4F4188" fill-rule="evenodd" d="M166.808 28.9485C165.557 28.9485 165.557 30.3467 166.808 30.3467C168.058 30.3467 168.058 28.9653 166.808 28.9485Z" clip-rule="evenodd"/><path fill="#4F4188" fill-rule="evenodd" d="M165.742 30.111C164.491 30.111 164.491 31.5092 165.742 31.5092C167.016 31.5092 167.016 30.111 165.742 30.111Z" clip-rule="evenodd"/><path fill="#4F4188" fill-rule="evenodd" d="M164.515 31.1553C163.264 31.1553 163.264 32.5535 164.515 32.5535C165.765 32.5535 165.765 31.1722 164.515 31.1553Z" clip-rule="evenodd"/><path fill="#4F4188" fill-rule="evenodd" d="M163.125 32.1325C161.875 32.1325 161.875 33.5307 163.125 33.5307C164.399 33.5307 164.399 32.1494 163.125 32.1325Z" clip-rule="evenodd"/><path fill="#4F4188" fill-rule="evenodd" d="M161.62 32.9915C160.369 32.9915 160.369 34.3897 161.62 34.3897C162.87 34.3897 162.87 32.9915 161.62 32.9915Z" clip-rule="evenodd"/><path fill="#4F4188" fill-rule="evenodd" d="M159.976 33.6992C158.725 33.6992 158.725 35.0974 159.976 35.0974C161.249 35.0974 161.249 33.6992 159.976 33.6992Z" clip-rule="evenodd"/><path fill="#4F4188" fill-rule="evenodd" d="M158.239 34.2887C156.988 34.2887 156.988 35.6869 158.239 35.6869C159.513 35.6869 159.513 34.2887 158.239 34.2887Z" clip-rule="evenodd"/><path fill="#4F4188" fill-rule="evenodd" d="M156.432 34.7436C155.182 34.7436 155.182 36.1418 156.432 36.1418C157.706 36.1418 157.706 34.7436 156.432 34.7436Z" clip-rule="evenodd"/><path fill="#4F4188" fill-rule="evenodd" d="M154.556 34.9963C153.306 34.9963 153.306 36.3945 154.556 36.3945C155.807 36.3945 155.807 35.0131 154.556 34.9963Z" clip-rule="evenodd"/><path fill="#4F4188" fill-rule="evenodd" d="M152.657 35.1478C151.407 35.1478 151.407 36.546 152.657 36.546C153.908 36.546 153.908 35.1646 152.657 35.1478Z" clip-rule="evenodd"/><path fill="#4F4188" fill-rule="evenodd" d="M150.758 35.1478C149.508 35.1478 149.508 36.546 150.758 36.546C152.032 36.546 152.032 35.1646 150.758 35.1478Z" clip-rule="evenodd"/><path fill="#4F4188" fill-rule="evenodd" d="M148.859 35.0468C147.609 35.0468 147.609 36.445 148.859 36.445C150.11 36.4282 150.11 35.0468 148.859 35.0468Z" clip-rule="evenodd"/><path fill="#4F4188" fill-rule="evenodd" d="M146.96 34.7436C145.71 34.7436 145.71 36.1418 146.96 36.1418C148.211 36.1418 148.211 34.7436 146.96 34.7436Z" clip-rule="evenodd"/><path fill="#4F4188" fill-rule="evenodd" d="M145.131 34.3393C143.88 34.3393 143.88 35.7375 145.131 35.7375C146.381 35.7375 146.381 34.3393 145.131 34.3393Z" clip-rule="evenodd"/><path fill="#4F4188" fill-rule="evenodd" d="M143.324 33.8002C142.074 33.8002 142.074 35.1984 143.324 35.1984C144.598 35.1984 144.598 33.8002 143.324 33.8002Z" clip-rule="evenodd"/><path fill="#4F4188" d="M67.6868 56.5083H72.2028V57.2664H70.5585V61.899H69.3311V57.2664H67.6868V56.5083V56.5083Z"/><path fill="#4F4188" d="M72.6893 56.5083H73.8241V58.4456C74.0789 58.0244 74.5189 57.8223 75.1442 57.8223C75.4684 57.8223 75.7231 57.8728 75.9316 57.9739C76.14 58.075 76.3021 58.2266 76.3716 58.395C76.4642 58.5635 76.5106 58.9004 76.5106 59.389V61.899H75.3758V59.389C75.3758 58.9678 75.3063 58.7151 75.1905 58.614C75.0515 58.513 74.8894 58.4624 74.7042 58.4624C74.1252 58.4624 73.8241 58.8499 73.8241 59.6079V61.8821H72.6893V56.5083Z"/><path fill="#4F4188" d="M81.7908 60.0122H78.6875C78.6875 60.5513 78.7801 60.9051 78.9886 61.0904C79.197 61.2757 79.4517 61.3599 79.7528 61.3599C80.2623 61.3599 80.5865 61.1072 80.7023 60.6187L81.7445 60.7197C81.4666 61.562 80.795 61.9832 79.7065 61.9832C79.0349 61.9832 78.5254 61.8147 78.1317 61.461C77.738 61.1072 77.5295 60.6187 77.5295 59.9448C77.5295 59.2542 77.738 58.7319 78.1317 58.3613C78.5254 57.9907 79.058 57.8054 79.7296 57.8054C80.1928 57.8054 80.5865 57.9065 80.9108 58.0918C81.235 58.2771 81.4434 58.5298 81.5824 58.833C81.7213 59.1362 81.7676 59.5237 81.7908 60.0122ZM80.6328 59.4563C80.6328 58.7488 80.3086 58.395 79.6833 58.395C79.1044 58.395 78.7801 58.7488 78.7107 59.4563H80.6328Z"/><path fill="#4F4188" d="M84.8475 56.5083H86.075V58.732H88.2519V56.4915H89.4793V61.8822H88.2519V59.4732H86.075V61.8822H84.8475V56.5083Z"/><path fill="#4F4188" d="M94.8983 59.8606C94.8983 61.2757 94.1804 62 92.7214 62C92.0498 62 91.5403 61.8316 91.1466 61.4778C90.7529 61.1241 90.5676 60.6018 90.5676 59.8943C90.5676 58.4961 91.2856 57.8054 92.7446 57.8054C93.393 57.8054 93.9257 57.9739 94.3194 58.3108C94.7131 58.6477 94.8983 59.1699 94.8983 59.8606ZM93.6941 59.8943C93.6941 59.3384 93.6014 58.9509 93.4393 58.7488C93.2772 58.5466 93.0456 58.4287 92.7446 58.4287C92.1193 58.4287 91.795 58.9173 91.795 59.8943C91.795 60.3997 91.8645 60.7703 92.0266 61.0061C92.1888 61.242 92.4203 61.3599 92.7677 61.3599C93.092 61.3599 93.3467 61.242 93.4856 60.9893C93.6246 60.7535 93.6941 60.3828 93.6941 59.8943Z"/><path fill="#4F4188" d="M95.9407 57.9064H97.0755V60.4333C97.0755 60.7871 97.1218 61.0229 97.1913 61.1408C97.2607 61.2588 97.446 61.3261 97.7239 61.3261C98.0713 61.3261 98.3029 61.2251 98.4418 61.0061C98.5808 60.7871 98.6503 60.3996 98.6503 59.8269V57.9064H99.7851V61.8989H98.7429V61.2924C98.4418 61.7641 97.9787 61.9831 97.3534 61.9831C97.0291 61.9831 96.7512 61.9326 96.5428 61.8315C96.3344 61.7304 96.1954 61.5957 96.1028 61.4104C96.0102 61.2251 95.9638 60.905 95.9638 60.4502V57.9064H95.9407Z"/><path fill="#4F4188" d="M104.394 58.833L103.514 59.0015C103.351 58.5972 103.05 58.395 102.587 58.395C102.379 58.395 102.217 58.4456 102.078 58.5298C101.939 58.614 101.892 58.7488 101.892 58.8836C101.892 59.0352 101.962 59.1531 102.078 59.2373C102.193 59.3215 102.518 59.4058 102.981 59.5068C103.56 59.6416 103.977 59.8101 104.231 59.9785C104.486 60.147 104.602 60.3997 104.602 60.7029C104.602 61.0567 104.417 61.3599 104.069 61.5957C103.722 61.8316 103.212 61.9663 102.61 61.9663C101.452 61.9663 100.781 61.5789 100.642 60.804L101.591 60.6692C101.707 61.124 102.055 61.3599 102.634 61.3599C102.935 61.3599 103.143 61.3094 103.282 61.2083C103.421 61.1072 103.49 60.9724 103.49 60.8377C103.49 60.7366 103.444 60.6355 103.351 60.5344C103.259 60.4334 102.981 60.3323 102.541 60.2312C102.101 60.1301 101.777 60.0459 101.568 59.9448C101.36 59.8438 101.174 59.7258 101.036 59.5742C100.897 59.4226 100.827 59.2205 100.827 59.0183C100.827 58.6814 100.989 58.395 101.337 58.1592C101.684 57.9233 102.124 57.8054 102.657 57.8054C103.537 57.8054 104.116 58.1592 104.394 58.833Z"/><path fill="#4F4188" d="M109.442 60.0122H106.339C106.339 60.5513 106.432 60.9051 106.64 61.0904C106.849 61.2757 107.103 61.3599 107.404 61.3599C107.914 61.3599 108.238 61.1072 108.354 60.6187L109.396 60.7197C109.118 61.562 108.447 61.9832 107.358 61.9832C106.686 61.9832 106.177 61.8147 105.783 61.461C105.39 61.1072 105.181 60.6187 105.181 59.9448C105.181 59.2542 105.39 58.7319 105.783 58.3613C106.177 57.9907 106.71 57.8054 107.381 57.8054C107.844 57.8054 108.238 57.9065 108.562 58.0918C108.887 58.2771 109.095 58.5298 109.234 58.833C109.373 59.1362 109.419 59.5237 109.442 60.0122ZM108.284 59.4563C108.284 58.7488 107.96 58.395 107.335 58.395C106.756 58.395 106.432 58.7488 106.362 59.4563H108.284Z"/><path fill="#4F4188" d="M116.483 59.8606C116.483 61.2757 115.765 62 114.306 62C113.634 62 113.125 61.8316 112.731 61.4778C112.337 61.1241 112.152 60.6018 112.152 59.8943C112.152 58.4961 112.87 57.8054 114.329 57.8054C114.977 57.8054 115.51 57.9739 115.904 58.3108C116.297 58.6477 116.483 59.1699 116.483 59.8606ZM115.278 59.8943C115.278 59.3384 115.186 58.9509 115.024 58.7488C114.861 58.5466 114.63 58.4287 114.329 58.4287C113.703 58.4287 113.379 58.9173 113.379 59.8943C113.379 60.3997 113.449 60.7703 113.611 61.0061C113.773 61.242 114.005 61.3599 114.352 61.3599C114.676 61.3599 114.931 61.242 115.07 60.9893C115.209 60.7535 115.278 60.3828 115.278 59.8943Z"/><path fill="#4F4188" d="M118.822 57.9064H119.795V58.5634H118.822V61.8821H117.71V58.5634H116.992V57.9064H117.71C117.71 57.4348 117.78 57.0978 117.872 56.9294C117.965 56.7609 118.15 56.6093 118.359 56.5082C118.567 56.4072 118.891 56.3566 119.285 56.3566C119.517 56.3566 119.725 56.3735 119.957 56.4072V57.0641C119.795 57.0473 119.656 57.0305 119.517 57.0305C119.285 57.0305 119.123 57.0642 119.03 57.1147C118.938 57.1652 118.868 57.2495 118.822 57.3505C118.776 57.4516 118.822 57.6201 118.822 57.9064Z"/><path fill="#4F4188" d="M123.894 56.5083H125.26L127.252 61.899H126.001L125.538 60.5513H123.361L122.898 61.899H121.717L123.894 56.5083ZM125.329 59.8438L124.473 57.3843L123.639 59.8438H125.329Z"/><path fill="#4F4188" d="M127.969 57.9065H129.012V58.5129C129.289 58.0413 129.729 57.8054 130.355 57.8054C131.05 57.8054 131.466 58.0581 131.605 58.5466C131.86 58.0581 132.323 57.8054 132.995 57.8054C133.319 57.8054 133.597 57.856 133.829 57.957C134.06 58.0581 134.199 58.2097 134.292 58.3782C134.384 58.5466 134.431 58.8836 134.431 59.3552V61.8821H133.296V59.4226C133.296 59.052 133.25 58.7993 133.157 58.6646C133.064 58.5298 132.879 58.4624 132.624 58.4624C132.045 58.4624 131.767 58.8162 131.767 59.5405V61.8821H130.633V59.4563C130.633 59.1194 130.61 58.8836 130.586 58.7825C130.563 58.6814 130.471 58.5972 130.378 58.5466C130.285 58.4961 130.146 58.4624 129.984 58.4624C129.66 58.4624 129.452 58.5466 129.313 58.7151C129.174 58.8836 129.104 59.1699 129.104 59.5574V61.8653H127.969V57.9065Z"/><path fill="#4F4188" d="M135.728 56.5083H136.863V58.3613C137.187 58.0076 137.604 57.8391 138.136 57.8391C138.715 57.8391 139.155 58.0244 139.48 58.3782C139.804 58.732 139.966 59.2036 139.966 59.8101C139.966 61.2588 139.294 61.9832 137.951 61.9832C137.326 61.9832 136.863 61.7811 136.631 61.3599C136.538 61.5115 136.469 61.6968 136.376 61.899H135.728V56.5083V56.5083ZM136.863 60.1975C136.863 60.9556 137.187 61.3431 137.812 61.3431C138.136 61.3431 138.391 61.2251 138.53 60.9893C138.692 60.7535 138.762 60.366 138.762 59.8269C138.762 59.3047 138.692 58.9341 138.53 58.732C138.368 58.5298 138.136 58.4287 137.835 58.4287C137.557 58.4287 137.326 58.513 137.14 58.6983C136.955 58.8836 136.863 59.1363 136.863 59.4395V60.1975Z"/><path fill="#4F4188" d="M142.05 59.0352L140.962 58.9341C141.031 58.5803 141.263 58.2939 141.633 58.1086C142.004 57.9065 142.467 57.8054 143.023 57.8054C143.509 57.8054 143.903 57.8728 144.204 58.0244C144.505 58.176 144.69 58.3445 144.76 58.5298C144.829 58.7319 144.875 59.0183 144.875 59.4226V60.7871C144.875 61.343 144.899 61.6968 144.968 61.8821H143.903C143.856 61.7305 143.833 61.5115 143.833 61.2251C143.486 61.7305 142.976 61.9832 142.305 61.9832C141.842 61.9832 141.471 61.8821 141.193 61.68C140.915 61.4778 140.776 61.1914 140.776 60.8377C140.776 60.3997 140.985 60.0628 141.402 59.8101C141.819 59.5574 142.513 59.4226 143.532 59.4226C143.579 59.4226 143.671 59.4226 143.764 59.4226V59.2542C143.764 58.9678 143.694 58.7488 143.579 58.614C143.463 58.4793 143.254 58.395 142.953 58.395C142.444 58.4119 142.143 58.614 142.05 59.0352ZM143.741 59.9448C143.602 59.928 143.486 59.928 143.416 59.928C142.444 59.928 141.934 60.2144 141.934 60.7703C141.934 61.1746 142.189 61.3767 142.675 61.3767C142.953 61.3767 143.208 61.2588 143.416 61.0398C143.625 60.8208 143.741 60.5176 143.741 60.1301V59.9448V59.9448Z"/><path fill="#4F4188" d="M146.149 56.5083H147.284V61.899H146.149V56.5083Z"/><path fill="#4F4188" d="M149.623 59.0352L148.535 58.9341C148.604 58.5803 148.836 58.2939 149.206 58.1086C149.577 57.9065 150.04 57.8054 150.596 57.8054C151.082 57.8054 151.476 57.8728 151.777 58.0244C152.078 58.176 152.263 58.3445 152.333 58.5298C152.402 58.7319 152.448 59.0183 152.448 59.4226V60.7871C152.448 61.343 152.472 61.6968 152.541 61.8821H151.476C151.43 61.7305 151.406 61.5115 151.406 61.2251C151.059 61.7305 150.549 61.9832 149.878 61.9832C149.415 61.9832 149.044 61.8821 148.766 61.68C148.488 61.4778 148.349 61.1914 148.349 60.8377C148.349 60.3997 148.558 60.0628 148.975 59.8101C149.392 59.5574 150.086 59.4226 151.105 59.4226C151.152 59.4226 151.244 59.4226 151.337 59.4226V59.2542C151.337 58.9678 151.267 58.7488 151.152 58.614C151.036 58.4793 150.827 58.395 150.526 58.395C150.017 58.4119 149.716 58.614 149.623 59.0352ZM151.314 59.9448C151.175 59.928 151.059 59.928 150.989 59.928C150.017 59.928 149.507 60.2144 149.507 60.7703C149.507 61.1746 149.762 61.3767 150.248 61.3767C150.526 61.3767 150.781 61.2588 150.989 61.0398C151.198 60.8208 151.314 60.5176 151.314 60.1301V59.9448V59.9448Z"/><path fill="#4F4188" d="M153.722 56.5083H154.857V61.899H153.722V56.5083Z"/><path fill="#4F4188" d="M61.9435 59.3383H4.04614V60.1806H61.9435V59.3383Z"/><path fill="#4F4188" d="M219.147 59.3383H161.249V60.1806H219.147V59.3383Z"/></g><defs><filter id="filter0_d_197:253" width="223.146" height="70" x="0" y="0" color-interpolation-filters="sRGB" filterUnits="userSpaceOnUse"><feFlood flood-opacity="0" result="BackgroundImageFix"/><feColorMatrix in="SourceAlpha" result="hardAlpha" type="matrix" values="0 0 0 0 0 0 0 0 0 0 0 0 0 0 0 0 0 0 127 0"/><feOffset dy="4"/><feGaussianBlur stdDeviation="2"/><feComposite in2="hardAlpha" operator="out"/><feColorMatrix type="matrix" values="0 0 0 0 0.309804 0 0 0 0 0.254902 0 0 0 0 0.533333 0 0 0 0.48 0"/><feBlend in2="BackgroundImageFix" mode="normal" result="effect1_dropShadow_197:253"/><feBlend in="SourceGraphic" in2="effect1_dropShadow_197:253" mode="normal" result="shape"/></filter></defs></svg>